<svg width="169" height="127" viewBox="0 0 169 127" fill="none" xmlns="http://www.w3.org/2000/svg">
<path d="M58.8259 6.0448C62.2338 2.47202 66.8278 0 71.7653 0H98.754C103.658 0 108.224 2.4353 111.556 6.03363C115.499 10.2918 121.438 15.6421 128.094 18C134.218 20.1697 134.83 25.6675 133.982 30.4935C133.021 35.9592 127.613 39 122.064 39H46.0301C40.6214 39 35.3076 36.1147 34.3181 30.7973C33.4069 25.9004 34.1051 20.2154 41.0938 18C48.5256 15.6441 54.7659 10.3012 58.8259 6.0448Z" fill="#F6EFFE"/>
<rect y="18" width="169" height="109" rx="25" fill="#F6EFFE"/>
<rect x="57" y="4" width="55" height="29" rx="14.5" fill="url(#paint0_linear_2222_1283)"/>
<path d="M89 22.245V29.117C89 29.2054 88.9766 29.2923 88.932 29.3688C88.8875 29.4452 88.8235 29.5085 88.7465 29.5521C88.6696 29.5957 88.5824 29.6181 88.4939 29.617C88.4055 29.616 88.3189 29.5914 88.243 29.546L84 27L79.757 29.546C79.681 29.5915 79.5944 29.616 79.5058 29.617C79.4173 29.6181 79.33 29.5956 79.253 29.5518C79.176 29.5081 79.112 29.4447 79.0676 29.3681C79.0231 29.2915 78.9998 29.2045 79 29.116V22.246C77.7061 21.2101 76.766 19.7979 76.3095 18.2045C75.8529 16.6112 75.9026 14.9154 76.4515 13.3514C77.0004 11.7875 78.0216 10.4327 79.3738 9.47425C80.726 8.51578 82.3425 8.00098 84 8.00098C85.6575 8.00098 87.274 8.51578 88.6262 9.47425C89.9784 10.4327 90.9996 11.7875 91.5485 13.3514C92.0974 14.9154 92.1471 16.6112 91.6905 18.2045C91.234 19.7979 90.2939 21.2101 89 22.246V22.245ZM84 22C85.5913 22 87.1174 21.3678 88.2426 20.2426C89.3679 19.1174 90 17.5913 90 16C90 14.4087 89.3679 12.8826 88.2426 11.7573C87.1174 10.6321 85.5913 9.99997 84 9.99997C82.4087 9.99997 80.8826 10.6321 79.7574 11.7573C78.6321 12.8826 78 14.4087 78 16C78 17.5913 78.6321 19.1174 79.7574 20.2426C80.8826 21.3678 82.4087 22 84 22V22ZM84 20C82.9391 20 81.9217 19.5785 81.1716 18.8284C80.4214 18.0783 80 17.0608 80 16C80 14.9391 80.4214 13.9217 81.1716 13.1715C81.9217 12.4214 82.9391 12 84 12C85.0609 12 86.0783 12.4214 86.8284 13.1715C87.5786 13.9217 88 14.9391 88 16C88 17.0608 87.5786 18.0783 86.8284 18.8284C86.0783 19.5785 85.0609 20 84 20Z" fill="white"/>
<defs>
<linearGradient id="paint0_linear_2222_1283" x1="84.5" y1="4" x2="84.5" y2="33" gradientUnits="userSpaceOnUse">
<stop stop-color="#790EF5"/>
<stop offset="1" stop-color="#C894FF"/>
</linearGradient>
</defs>
</svg>
