<svg width="25" height="25" viewBox="0 0 25 25" fill="none" xmlns="http://www.w3.org/2000/svg">
<path d="M14.5834 2.08337C16.6667 2.08337 17.7084 3.13546 17.7084 5.23962V12.5834C17.7084 14.6563 16.2396 15.4584 14.4375 14.375L13.0625 13.5417C12.75 13.3542 12.25 13.3542 11.9375 13.5417L10.5625 14.375C8.76044 15.4584 7.29169 14.6563 7.29169 12.5834V5.23962C7.29169 3.13546 8.33335 2.08337 10.4167 2.08337H14.5834Z" stroke="#4C05B8" stroke-width="1.5" stroke-linecap="round" stroke-linejoin="round"/>
<path d="M7.10415 5.19788C3.55206 5.79163 2.08331 7.97913 2.08331 12.3958V15.552C2.08331 20.8125 4.16665 22.9166 9.37498 22.9166H15.625C20.8333 22.9166 22.9166 20.8125 22.9166 15.552V12.3958C22.9166 7.90621 21.3958 5.70829 17.7083 5.16663" stroke="#4C05B8" stroke-width="1.5" stroke-linecap="round" stroke-linejoin="round"/>
</svg>
