<svg width="169" height="127" viewBox="0 0 169 127" fill="none" xmlns="http://www.w3.org/2000/svg">
<path d="M58.8259 6.0448C62.2338 2.47202 66.8278 0 71.7653 0H98.754C103.658 0 108.224 2.4353 111.556 6.03363C115.499 10.2918 121.438 15.6421 128.094 18C134.218 20.1697 134.83 25.6675 133.982 30.4935C133.021 35.9592 127.613 39 122.064 39H46.0301C40.6214 39 35.3076 36.1147 34.3181 30.7973C33.4069 25.9004 34.1051 20.2154 41.0938 18C48.5256 15.6442 54.7659 10.3012 58.8259 6.0448Z" fill="#F6EFFE"/>
<rect y="18" width="169" height="109" rx="25" fill="#F6EFFE"/>
<rect x="57" y="4" width="55" height="29" rx="14.5" fill="url(#paint0_linear_2221_1338)"/>
<path d="M84.253 29.253C83.0711 29.253 81.9008 29.0202 80.8088 28.5679C79.7169 28.1156 78.7248 27.4527 77.889 26.617C77.0533 25.7812 76.3904 24.7891 75.9381 23.6972C75.4858 22.6052 75.253 21.4349 75.253 20.253C75.253 19.0711 75.4858 17.9008 75.9381 16.8088C76.3904 15.7169 77.0533 14.7248 77.889 13.889C78.7248 13.0533 79.7169 12.3904 80.8088 11.9381C81.9008 11.4858 83.0711 11.253 84.253 11.253C86.6399 11.253 88.9291 12.2012 90.617 13.889C92.3048 15.5769 93.253 17.8661 93.253 20.253C93.253 22.6399 92.3048 24.9291 90.617 26.617C88.9291 28.3048 86.6399 29.253 84.253 29.253V29.253ZM85.253 20.253V15.253H83.253V22.253H88.253V20.253H85.253ZM74 13.535L77.535 10L78.95 11.414L75.413 14.95L74 13.535ZM90.97 10L94.506 13.535L93.092 14.95L89.556 11.414L90.971 10H90.97Z" fill="white"/>
<defs>
<linearGradient id="paint0_linear_2221_1338" x1="84.5" y1="4" x2="84.5" y2="33" gradientUnits="userSpaceOnUse">
<stop stop-color="#790EF5"/>
<stop offset="1" stop-color="#C894FF"/>
</linearGradient>
</defs>
</svg>
