<svg width="1280" height="402" viewBox="0 0 1280 402" fill="none" xmlns="http://www.w3.org/2000/svg">
<rect width="1280" height="402" rx="30" fill="#F9F4FF"/>
<mask id="mask0_211_96" style="mask-type:alpha" maskUnits="userSpaceOnUse" x="935" y="83" width="345" height="319">
<path d="M1279.85 83H935V402H1249.85C1266.42 402 1279.85 388.569 1279.85 372V83Z" fill="#D9D9D9"/>
<path d="M1279.35 83.5H935.5V401.5H1249.85C1266.14 401.5 1279.35 388.292 1279.35 372V83.5Z" stroke="#A354FF" stroke-opacity="0.1"/>
</mask>
<g mask="url(#mask0_211_96)">
</g>
<mask id="mask1_211_96" style="mask-type:alpha" maskUnits="userSpaceOnUse" x="935" y="83" width="345" height="319">
<path d="M1279.85 83H935V402H1249.85C1266.42 402 1279.85 388.569 1279.85 372V83Z" fill="#D9D9D9"/>
<path d="M1279.35 83.5H935.5V401.5H1249.85C1266.14 401.5 1279.35 388.292 1279.35 372V83.5Z" stroke="#A354FF" stroke-opacity="0.1"/>
</mask>
<g mask="url(#mask1_211_96)">
<path d="M1280.16 792.839C1111.99 792.839 975.66 633.908 975.66 437.857C975.66 241.806 1111.99 82.8751 1280.16 82.8751C1448.33 82.8751 1584.66 241.806 1584.66 437.857C1584.66 633.908 1448.33 792.839 1280.16 792.839Z" fill="url(#paint0_linear_211_96)" fill-opacity="0.1"/>
<path d="M976.16 437.857C976.16 633.707 1112.33 792.339 1280.16 792.339C1447.98 792.339 1584.16 633.707 1584.16 437.857C1584.16 242.007 1447.98 83.3751 1280.16 83.3751C1112.33 83.3751 976.16 242.007 976.16 437.857Z" stroke="#A354FF" stroke-opacity="0.1"/>
<path d="M976.072 437.857C976.072 633.779 1112.3 792.454 1280.16 792.454C1448.02 792.454 1584.25 633.779 1584.25 437.857C1584.25 241.936 1448.02 83.2604 1280.16 83.2604C1112.3 83.2604 976.072 241.936 976.072 437.857Z" stroke="#A354FF" stroke-opacity="0.1"/>
<path d="M1280.16 754.628C1130.13 754.628 1008.5 612.805 1008.5 437.857C1008.5 262.909 1130.13 121.086 1280.16 121.086C1430.19 121.086 1551.82 262.909 1551.82 437.857C1551.82 612.805 1430.19 754.628 1280.16 754.628Z" fill="url(#paint1_linear_211_96)" fill-opacity="0.25"/>
<path d="M1009 437.857C1009 612.604 1130.47 754.128 1280.16 754.128C1429.85 754.128 1551.32 612.604 1551.32 437.857C1551.32 263.111 1429.85 121.586 1280.16 121.586C1130.47 121.586 1009 263.111 1009 437.857Z" stroke="#790EF5" stroke-opacity="0.05"/>
<path d="M1008.91 437.857C1008.91 612.676 1130.44 754.243 1280.16 754.243C1429.88 754.243 1551.4 612.676 1551.4 437.857C1551.4 263.038 1429.88 121.471 1280.16 121.471C1130.44 121.471 1008.91 263.038 1008.91 437.857Z" stroke="#A354FF" stroke-opacity="0.1"/>
</g>
<mask id="mask2_211_96" style="mask-type:alpha" maskUnits="userSpaceOnUse" x="0" y="83" width="345" height="319">
<path d="M0 83H344.85V402H30C13.4314 402 0 388.569 0 372V83Z" fill="#D9D9D9"/>
</mask>
<g mask="url(#mask2_211_96)">
</g>
<mask id="mask3_211_96" style="mask-type:alpha" maskUnits="userSpaceOnUse" x="0" y="83" width="345" height="319">
<path d="M0 83H344.85V402H30C13.4314 402 0 388.569 0 372V83Z" fill="#D9D9D9"/>
</mask>
<g mask="url(#mask3_211_96)">
<path d="M-0.309235 792.839C167.861 792.839 304.19 633.908 304.19 437.857C304.19 241.806 167.861 82.8751 -0.309235 82.8751C-168.48 82.8751 -304.808 241.806 -304.808 437.857C-304.808 633.908 -168.48 792.839 -0.309235 792.839Z" fill="url(#paint2_linear_211_96)" fill-opacity="0.1"/>
<path d="M303.778 437.857C303.778 633.779 167.553 792.454 -0.309174 792.454C-168.173 792.454 -304.397 633.779 -304.397 437.857C-304.397 241.936 -168.173 83.2604 -0.309174 83.2604C167.553 83.2604 303.778 241.936 303.778 437.857Z" stroke="#790EF5" stroke-opacity="0.1"/>
<path d="M-0.309235 754.628C149.723 754.628 271.347 612.805 271.347 437.857C271.347 262.909 149.723 121.086 -0.309235 121.086C-150.341 121.086 -271.966 262.909 -271.966 437.857C-271.966 612.805 -150.341 754.628 -0.309235 754.628Z" fill="url(#paint3_linear_211_96)" fill-opacity="0.25"/>
<path d="M270.935 437.857C270.935 612.676 149.415 754.243 -0.309298 754.243C-150.033 754.243 -271.555 612.676 -271.555 437.857C-271.555 263.038 -150.033 121.471 -0.309298 121.471C149.415 121.471 270.935 263.038 270.935 437.857Z" stroke="#790EF5" stroke-opacity="0.1"/>
</g>
<defs>
<linearGradient id="paint0_linear_211_96" x1="1280.16" y1="82.8751" x2="1280.16" y2="792.839" gradientUnits="userSpaceOnUse">
<stop stop-color="#790EF5"/>
<stop offset="0.503" stop-color="white" stop-opacity="0"/>
</linearGradient>
<linearGradient id="paint1_linear_211_96" x1="1280.16" y1="121.086" x2="1280.16" y2="754.628" gradientUnits="userSpaceOnUse">
<stop stop-color="#790EF5"/>
<stop offset="0.503" stop-color="white" stop-opacity="0"/>
</linearGradient>
<linearGradient id="paint2_linear_211_96" x1="-0.309235" y1="82.8751" x2="-0.309235" y2="792.839" gradientUnits="userSpaceOnUse">
<stop stop-color="#790EF5"/>
<stop offset="0.503" stop-color="white" stop-opacity="0"/>
</linearGradient>
<linearGradient id="paint3_linear_211_96" x1="-0.309235" y1="121.086" x2="-0.309235" y2="754.628" gradientUnits="userSpaceOnUse">
<stop stop-color="#790EF5"/>
<stop offset="0.503" stop-color="white" stop-opacity="0"/>
</linearGradient>
</defs>
</svg>
