<svg width="358" height="358" viewBox="0 0 358 358" fill="none" xmlns="http://www.w3.org/2000/svg">
<path d="M358 179C358 80.141 277.859 0 179 0C80.141 0 0 80.141 0 179C0 268.344 65.4577 342.397 151.031 355.825V230.742H105.582V179H151.031V139.564C151.031 94.7022 177.755 69.9219 218.642 69.9219C238.226 69.9219 258.711 73.418 258.711 73.418V117.469H236.139C213.903 117.469 206.969 131.267 206.969 145.422V179H256.613L248.677 230.742H206.969V355.825C292.542 342.397 358 268.344 358 179Z" fill="#1877F2"/>
<path d="M248.677 230.742L256.613 179H206.968V145.422C206.968 131.267 213.903 117.469 236.139 117.469H258.71V73.418C258.71 73.418 238.226 69.9219 218.642 69.9219C177.754 69.9219 151.031 94.7022 151.031 139.564V179H105.582V230.742H151.031V355.825C160.144 357.255 169.485 358 179 358C188.514 358 197.855 357.255 206.968 355.825V230.742H248.677Z" fill="white"/>
</svg>
