<svg width="169" height="127" viewBox="0 0 169 127" fill="none" xmlns="http://www.w3.org/2000/svg">
<path d="M58.8259 6.0448C62.2338 2.47202 66.8278 0 71.7653 0H98.754C103.658 0 108.224 2.4353 111.556 6.03363C115.499 10.2918 121.438 15.6421 128.094 18C134.218 20.1697 134.83 25.6675 133.982 30.4935C133.021 35.9592 127.613 39 122.064 39H46.0301C40.6214 39 35.3076 36.1147 34.3181 30.7973C33.4069 25.9004 34.1051 20.2154 41.0938 18C48.5256 15.6442 54.7659 10.3012 58.8259 6.0448Z" fill="#F6EFFE"/>
<rect y="18" width="169" height="109" rx="25" fill="#F6EFFE"/>
<rect x="57" y="4" width="55" height="29" rx="14.5" fill="url(#paint0_linear_2221_1346)"/>
<path d="M88 9C88.552 9 89 9.448 89 10V12H94C94.552 12 95 12.448 95 13V26C95 26.552 94.552 27 94 27H76C75.448 27 75 26.552 75 26V13C75 12.448 75.448 12 76 12H81V10C81 9.448 81.448 9 82 9H88ZM81 14H79V25H81V14ZM91 14H89V25H91V14ZM87 11H83V12H87V11Z" fill="white"/>
<defs>
<linearGradient id="paint0_linear_2221_1346" x1="84.5" y1="4" x2="84.5" y2="33" gradientUnits="userSpaceOnUse">
<stop stop-color="#790EF5"/>
<stop offset="1" stop-color="#C894FF"/>
</linearGradient>
</defs>
</svg>
