<svg width="169" height="127" viewBox="0 0 169 127" fill="none" xmlns="http://www.w3.org/2000/svg">
<path d="M58.8259 6.0448C62.2338 2.47202 66.8278 0 71.7653 0H98.754C103.658 0 108.224 2.4353 111.556 6.03363C115.499 10.2918 121.438 15.6421 128.094 18C134.218 20.1697 134.83 25.6675 133.982 30.4935C133.021 35.9592 127.613 39 122.064 39H46.0301C40.6214 39 35.3076 36.1147 34.3181 30.7973C33.4069 25.9004 34.1051 20.2154 41.0938 18C48.5256 15.6442 54.7659 10.3012 58.8259 6.0448Z" fill="#F6EFFE"/>
<rect y="18" width="169" height="109" rx="25" fill="#F6EFFE"/>
<rect x="57" y="4" width="55" height="29" rx="14.5" fill="url(#paint0_linear_2215_1326)"/>
<path d="M82.7618 9.41581C83.556 8.25388 85.27 8.25388 86.0642 9.41581L88.2361 12.5935C88.4966 12.9747 88.8811 13.254 89.3241 13.384L93.0182 14.4681C94.3687 14.8644 94.8983 16.4945 94.0386 17.6088L91.6872 20.6567C91.4051 21.0223 91.2582 21.4742 91.2715 21.9357L91.382 25.7832C91.4224 27.19 90.0358 28.1974 88.7104 27.7242L85.0855 26.4301C84.6506 26.2748 84.1754 26.2748 83.7405 26.4301L80.1156 27.7242C78.7902 28.1974 77.4036 27.19 77.444 25.7832L77.5545 21.9357C77.5678 21.4742 77.4209 21.0223 77.1388 20.6567L74.7874 17.6088C73.9277 16.4945 74.4573 14.8644 75.8078 14.4681L79.5019 13.384C79.9449 13.254 80.3294 12.9747 80.5899 12.5935L82.7618 9.41581ZM82.418 18.65C82.4152 18.5664 82.3466 18.5 82.2629 18.5H81.4297C80.8682 18.5 80.4003 18.9623 80.5415 19.5058C80.7149 20.1735 81.0597 20.7908 81.5494 21.2929C82.278 22.04 83.2697 22.4727 84.313 22.4988C85.3562 22.5249 86.3683 22.1423 87.1334 21.4326C87.8984 20.7228 88.3558 19.7422 88.408 18.7V18.7C88.4107 18.5904 88.3226 18.5 88.2129 18.5H87.4027C86.8568 18.5 86.4344 18.9693 86.1773 19.4509C86.0919 19.611 85.9843 19.76 85.8566 19.8932C85.4974 20.2678 85.0067 20.4881 84.4881 20.5075C83.9694 20.527 83.4636 20.3441 83.0773 19.9975C82.691 19.6509 82.4546 19.1677 82.418 18.65V18.65Z" fill="#F6EFFE"/>
<defs>
<linearGradient id="paint0_linear_2215_1326" x1="84.5" y1="4" x2="84.5" y2="33" gradientUnits="userSpaceOnUse">
<stop stop-color="#790EF5"/>
<stop offset="1" stop-color="#C894FF"/>
</linearGradient>
</defs>
</svg>
