<svg width="410" height="411" viewBox="0 0 410 411" fill="none" xmlns="http://www.w3.org/2000/svg">
<path d="M90.868 247.786L76.5959 301.065L24.4319 302.169C8.84255 273.254 0 240.171 0 205.016C0 171.021 8.26757 138.963 22.9224 110.735H22.9336L69.3742 119.249L89.718 165.411C85.4601 177.824 83.1393 191.15 83.1393 205.016C83.1409 220.065 85.8669 234.483 90.868 247.786Z" fill="#FBBB00"/>
<path d="M406.418 166.715C408.772 179.116 410 191.923 410 205.013C410 219.69 408.457 234.007 405.517 247.817C395.537 294.811 369.461 335.846 333.337 364.885L333.326 364.874L274.831 361.889L266.552 310.209C290.522 296.151 309.255 274.152 319.122 247.817H209.5V166.715H320.722H406.418Z" fill="#518EF8"/>
<path d="M333.359 364.867L333.37 364.878C298.238 393.117 253.609 410.013 205.027 410.013C126.955 410.013 59.0774 366.376 24.4512 302.159L90.8872 247.776C108.2 293.982 152.772 326.873 205.027 326.873C227.487 326.873 248.529 320.801 266.585 310.202L333.359 364.867Z" fill="#28B446"/>
<path d="M335.846 47.198L269.433 101.57C250.746 89.8892 228.656 83.1416 204.991 83.1416C151.554 83.1416 106.148 117.542 89.7022 165.404L22.917 110.728H22.9058C57.0251 44.9454 125.759 0.00146484 204.991 0.00146484C254.733 0.00146484 300.342 17.7202 335.846 47.198Z" fill="#F14336"/>
</svg>
