<svg width="1392" height="1392" viewBox="0 0 1392 1392" fill="none" xmlns="http://www.w3.org/2000/svg">
<circle cx="696" cy="696" r="696" fill="#19BB00" fill-opacity="0.32"/>
<mask id="mask0_65_1017" style="mask-type:alpha" maskUnits="userSpaceOnUse" x="0" y="0" width="1392" height="1392">
<circle cx="696" cy="696" r="696" fill="#FFEDEF"/>
</mask>
<g mask="url(#mask0_65_1017)">
<g clip-path="url(#clip0_65_1017)">
<path d="M893.811 1327.9C841.061 1254.63 799.79 1112.99 794.905 1042.17L543.979 934.107L439.579 1327.9H893.811Z" fill="#F4D150" stroke="black" stroke-width="14.6526"/>
<mask id="mask1_65_1017" style="mask-type:alpha" maskUnits="userSpaceOnUse" x="439" y="934" width="455" height="431">
<path d="M893.811 1364.53C841.061 1291.27 799.79 1112.99 794.905 1042.17L543.979 934.107L439.579 1364.53H893.811Z" fill="#F9C9B6"/>
</mask>
<g mask="url(#mask1_65_1017)">
<g style="mix-blend-mode:multiply">
<ellipse cx="783.916" cy="926.78" rx="216.126" ry="197.811" fill="black"/>
</g>
</g>
<mask id="path-6-inside-1_65_1017" fill="white">
<path fill-rule="evenodd" clip-rule="evenodd" d="M1003.29 710.354C1003.19 709.929 1003.09 709.504 1002.99 709.079C1002.89 708.654 1002.78 708.23 1002.68 707.806L942.616 457.109C942.558 456.862 942.499 456.615 942.44 456.368C942.38 456.121 942.321 455.874 942.261 455.627L941.994 454.511L941.989 454.512C904.558 302.694 751.524 209.344 599.231 245.832C446.938 282.32 352.823 434.885 388.256 587.182L388.249 587.184L450.49 846.967L450.541 846.955C489.381 996.795 641.282 1088.51 792.453 1052.29C943.623 1016.07 1037.47 865.478 1004.19 714.305L1004.24 714.295L1003.29 710.354Z"/>
</mask>
<path fill-rule="evenodd" clip-rule="evenodd" d="M1003.29 710.354C1003.19 709.929 1003.09 709.504 1002.99 709.079C1002.89 708.654 1002.78 708.23 1002.68 707.806L942.616 457.109C942.558 456.862 942.499 456.615 942.44 456.368C942.38 456.121 942.321 455.874 942.261 455.627L941.994 454.511L941.989 454.512C904.558 302.694 751.524 209.344 599.231 245.832C446.938 282.32 352.823 434.885 388.256 587.182L388.249 587.184L450.49 846.967L450.541 846.955C489.381 996.795 641.282 1088.51 792.453 1052.29C943.623 1016.07 1037.47 865.478 1004.19 714.305L1004.24 714.295L1003.29 710.354Z" fill="#F4D150"/>
<path d="M1003.29 710.354L989.027 713.704L989.034 713.736L989.042 713.768L1003.29 710.354ZM1002.99 709.079L1017.24 705.665L1017.24 705.665L1002.99 709.079ZM1002.68 707.806L988.432 711.22L988.439 711.252L988.447 711.283L1002.68 707.806ZM942.616 457.109L928.358 460.487L928.362 460.505L928.367 460.523L942.616 457.109ZM942.261 455.627L928.012 459.041L928.016 459.06L928.021 459.079L942.261 455.627ZM941.994 454.511L956.243 451.097L952.834 436.868L938.6 440.257L941.994 454.511ZM941.989 454.512L927.762 458.02L931.242 472.133L945.382 468.767L941.989 454.512ZM599.231 245.832L602.645 260.081L602.645 260.081L599.231 245.832ZM388.256 587.182L391.687 601.427L405.822 598.022L402.527 583.862L388.256 587.182ZM388.249 587.184L384.817 572.939L370.589 576.366L373.999 590.598L388.249 587.184ZM450.49 846.967L436.241 850.381L439.654 864.627L453.901 861.217L450.49 846.967ZM450.541 846.955L464.725 843.278L461.117 829.357L447.131 832.705L450.541 846.955ZM792.453 1052.29L789.039 1038.04L789.039 1038.04L792.453 1052.29ZM1004.19 714.305L1000.78 700.056L986.788 703.407L989.88 717.456L1004.19 714.305ZM1004.24 714.295L1007.65 728.544L1021.9 725.131L1018.48 710.881L1004.24 714.295ZM1017.56 707.004C1017.45 706.559 1017.35 706.112 1017.24 705.665L988.74 712.493C988.836 712.896 988.932 713.3 989.027 713.704L1017.56 707.004ZM1017.24 705.665C1017.13 705.218 1017.02 704.773 1016.91 704.329L988.447 711.283C988.545 711.687 988.643 712.09 988.74 712.494L1017.24 705.665ZM928.367 460.523L988.432 711.22L1016.93 704.392L956.865 453.695L928.367 460.523ZM956.874 453.731C956.813 453.473 956.751 453.214 956.689 452.954L928.19 459.782C928.246 460.016 928.302 460.251 928.358 460.487L956.874 453.731ZM956.689 452.954C956.627 452.694 956.564 452.435 956.501 452.176L928.021 459.079C928.077 459.313 928.134 459.547 928.19 459.782L956.689 452.954ZM927.744 457.925L928.012 459.041L956.51 452.213L956.243 451.097L927.744 457.925ZM945.382 468.767L945.388 468.765L938.6 440.257L938.595 440.258L945.382 468.767ZM956.215 451.005C916.858 291.371 755.948 193.216 595.817 231.582L602.645 260.081C747.099 225.471 892.258 314.017 927.762 458.02L956.215 451.005ZM595.817 231.582C435.685 269.948 336.727 430.365 373.984 590.502L402.527 583.862C368.918 439.405 458.19 294.691 602.645 260.081L595.817 231.582ZM391.68 601.429L391.687 601.427L384.824 572.937L384.817 572.939L391.68 601.429ZM464.74 843.553L402.498 583.77L373.999 590.598L436.241 850.381L464.74 843.553ZM447.131 832.705L447.08 832.717L453.901 861.217L453.952 861.205L447.131 832.705ZM436.358 850.631C477.198 1008.19 636.915 1104.62 795.867 1066.54L789.039 1038.04C645.65 1072.39 501.565 985.401 464.725 843.278L436.358 850.631ZM795.867 1066.54C954.819 1028.45 1053.49 870.113 1018.5 711.155L989.88 717.456C1021.45 860.842 932.428 1003.68 789.039 1038.04L795.867 1066.54ZM1000.82 700.045L1000.78 700.056L1007.6 728.555L1007.65 728.544L1000.82 700.045ZM989.042 713.768L989.986 717.709L1018.48 710.881L1017.54 706.94L989.042 713.768Z" fill="black" mask="url(#path-6-inside-1_65_1017)"/>
</g>
<circle cx="612.794" cy="583.404" r="43.9579" transform="rotate(-6.27568 612.794 583.404)" fill="white"/>
<ellipse cx="617.52" cy="616.972" rx="32.9684" ry="49.4526" transform="rotate(-6.77646 617.52 616.972)" fill="black"/>
<circle cx="846.427" cy="551.799" r="43.9579" transform="rotate(-6.27568 846.427 551.799)" fill="white"/>
<ellipse cx="851.962" cy="580.34" rx="32.9684" ry="49.4526" transform="rotate(-6.27568 851.962 580.34)" fill="black"/>
<path d="M802.232 484.323C822.99 474.555 871.832 465.641 901.137 508.134" stroke="black" stroke-width="14.6526" stroke-linecap="round"/>
<path d="M525.953 577.026C533.538 555.375 561.42 514.294 612.267 523.183" stroke="black" stroke-width="14.6526" stroke-linecap="round"/>
<path d="M535.093 554.815L512.57 534.937" stroke="black" stroke-width="14.6526" stroke-linecap="round"/>
<path d="M890.005 487.777L912.527 467.899" stroke="black" stroke-width="14.6526" stroke-linecap="round"/>
<path d="M558.717 534.142L543.893 508.014" stroke="black" stroke-width="14.6526" stroke-linecap="round"/>
<path d="M862.717 474.43L877.541 448.302" stroke="black" stroke-width="14.6526" stroke-linecap="round"/>
<path d="M588.301 520.905L580.239 491.967" stroke="black" stroke-width="14.6526" stroke-linecap="round"/>
<path d="M829.47 472.182L837.533 443.244" stroke="black" stroke-width="14.6526" stroke-linecap="round"/>
<path d="M604.244 438.602C611.159 439.692 611.158 439.697 611.157 439.703L611.155 439.715L611.15 439.742L611.139 439.81C611.131 439.86 611.12 439.922 611.107 439.995C611.08 440.141 611.043 440.331 610.994 440.566C610.897 441.036 610.75 441.682 610.538 442.501C610.114 444.138 609.426 446.462 608.337 449.438C606.159 455.391 602.381 463.938 595.908 474.798C584.297 494.276 564.034 521.166 528.815 553.882C638.602 556.619 730.303 521.251 795.571 484.161C829.861 464.676 856.789 444.751 875.123 429.718C884.287 422.203 891.296 415.918 895.996 411.53C898.345 409.336 900.117 407.617 901.291 406.457C901.878 405.877 902.316 405.437 902.602 405.147C902.745 405.002 902.85 404.894 902.917 404.826L902.989 404.752L903.002 404.738L903.004 404.736L911.362 396.041L914.765 407.614L908.049 409.589C914.765 407.614 914.765 407.615 914.766 407.617L914.768 407.625L914.777 407.656L914.813 407.78L914.956 408.267C915.082 408.697 915.269 409.335 915.514 410.171C916.003 411.844 916.722 414.307 917.643 417.473C919.483 423.803 922.129 432.944 925.351 444.187C931.794 466.673 940.545 497.577 949.771 531.246C968.187 598.452 988.615 677.089 996.269 721.618C1009.06 796.047 989.279 852.556 977.578 885.983C975.303 892.481 973.333 898.106 971.968 902.822C972.164 902.987 972.421 903.187 972.755 903.424C974.942 904.975 978.821 906.762 984.426 908.544C995.473 912.055 1011.24 914.935 1028.1 916.557C1044.93 918.177 1062.45 918.507 1076.95 917.091C1084.21 916.383 1090.53 915.255 1095.55 913.722C1100.37 912.249 1103.38 910.583 1105.01 909.078C1105.06 908.763 1105.13 908.01 1104.95 906.558C1104.59 903.716 1103.46 899.714 1101.51 894.42C1098.61 886.519 1094.3 876.846 1089.26 865.535C1087.56 861.7 1085.77 857.676 1083.92 853.47C1069.52 820.724 1052.21 778.14 1048.44 734.753C1044.24 686.545 1053.77 645.315 1062.33 608.254L1062.74 606.488C1071.49 568.612 1078.76 535.72 1071.29 502.386C1059.95 451.797 1044.48 409.679 1020.72 379.414C997.22 349.472 965.339 330.784 920.004 327.348L915.322 326.993L913.874 322.526C893.014 258.163 864.852 216.107 828.94 190.027C793.041 163.957 748.514 153.21 693.627 153.21C592.203 153.21 482.984 191.743 401.023 258.409C319.146 325.006 264.96 419.206 272.05 530.704C279.874 653.755 270.957 747.057 250.847 815.378C232.509 877.676 204.716 919.651 171.402 944.136C175.773 946.368 181.6 949.203 188.879 952.447C207.293 960.655 235 971.491 271.936 981.854C342.762 1001.73 447.568 1019.88 585.91 1014.41C555.415 988.214 524.648 956.428 500.287 922.829C472.327 884.268 452.171 842.449 451.581 803.5C450.88 757.246 454.013 636.214 454.982 611.16C457.234 552.929 494.622 508.044 530.215 478.187C548.116 463.172 565.849 451.712 579.096 444.006C585.727 440.148 591.253 437.221 595.14 435.25C597.083 434.264 598.618 433.516 599.678 433.01C600.208 432.758 600.619 432.565 600.903 432.433C600.978 432.398 601.045 432.368 601.102 432.341C601.153 432.318 601.196 432.298 601.232 432.281L601.324 432.24L601.351 432.227L601.36 432.223C601.363 432.222 601.365 432.221 604.244 438.602ZM604.244 438.602L611.159 439.692L613.177 426.892L601.365 432.221L604.244 438.602ZM971.405 902.243C971.414 902.243 971.458 902.292 971.51 902.389C971.423 902.292 971.397 902.243 971.405 902.243Z" fill="white" stroke="black" stroke-width="14"/>
<path d="M915.79 326.021C917.622 342.505 914.691 375.473 910.295 397.452" stroke="black" stroke-width="14.6526"/>
<path d="M746.485 633.616C747.23 647.691 752.705 677.872 768.642 685.989C788.564 696.136 772.946 729.774 735.652 727.617" stroke="black" stroke-width="14.6526"/>
<path d="M479.874 667.609V663.509L476.379 661.365C462.702 652.972 446.069 648.38 428.883 648.38C408.221 648.38 388.878 654.781 375.099 667.776C361.166 680.917 353.649 700.131 355.645 724.083C357.59 747.423 365.426 764.602 378.422 776.016C377.354 779.676 377.039 783.622 377.534 787.775C378.96 799.747 385.012 808.374 394.366 813.69C403.281 818.757 414.692 820.547 426.847 820.547C446.918 820.547 464.517 809.752 477.918 795.313L479.874 793.205V790.329V667.609Z" stroke="black" stroke-width="14.6526"/>
<path fill-rule="evenodd" clip-rule="evenodd" d="M501.75 725.249C502.012 722.861 502.146 720.436 502.146 717.98C502.146 680.552 467.322 655.706 428.883 655.706C390.444 655.706 359.283 679.516 362.946 723.474C364.984 747.935 373.737 764.033 387.308 773.722C385.153 777.473 384.21 781.878 384.809 786.908C387.113 806.256 403.63 813.221 426.846 813.221C467.525 813.221 499.712 761.769 501.75 725.249Z" fill="#F4D150"/>
<path d="M445.074 686.844C430.421 680.129 398.185 676.588 386.463 716.15" stroke="black" stroke-width="14.6526"/>
<path d="M406.611 688.674C414.548 695.39 429.689 716.148 426.758 745.453" stroke="black" stroke-width="14.6526"/>
<circle cx="421.263" cy="791.243" r="14.6526" fill="white"/>
<circle cx="424.926" cy="787.58" r="3.66316" fill="#FFEDEF"/>
<path d="M695.161 1317.19C695.161 1317.19 695.162 1317.19 699.663 1311.41L695.162 1317.19L701.468 1322.1L705.812 1315.39L705.813 1315.39L705.82 1315.38L705.854 1315.33C705.886 1315.28 705.936 1315.2 706.004 1315.1C706.064 1315.01 706.137 1314.9 706.224 1314.77C706.335 1314.6 706.468 1314.4 706.622 1314.17C707.173 1313.34 707.998 1312.12 709.076 1310.57C711.233 1307.45 714.399 1302.99 718.412 1297.66C726.447 1286.98 737.819 1272.88 751.209 1259.09C764.635 1245.27 779.878 1231.98 795.629 1222.74C811.441 1213.46 827.056 1208.66 841.547 1210.61C997.007 1231.57 1111.41 1300.43 1185.67 1402.99H184.53C244.238 1295.51 329.164 1227.09 466.85 1195.7C472.717 1194.36 480.695 1194.77 490.67 1197.09C500.542 1199.38 511.797 1203.42 523.935 1208.75C548.21 1219.42 575.308 1234.98 600.773 1251.1C626.199 1267.2 649.809 1283.73 667.075 1296.24C675.703 1302.5 682.737 1307.75 687.609 1311.42C690.044 1313.26 691.939 1314.71 693.221 1315.69C693.477 1315.89 693.708 1316.07 693.914 1316.23C694.226 1316.47 694.481 1316.66 694.677 1316.82C694.84 1316.94 694.963 1317.04 695.044 1317.1L695.135 1317.17L695.156 1317.19L695.161 1317.19Z" fill="#9287FF" stroke="black" stroke-width="14.6526"/>
<path d="M423.507 1205.49L442.434 1135.04C443.2 1132.19 446.891 1131.38 448.884 1133.56C503.33 1193.14 572.038 1190.81 594.843 1188.07C597.938 1187.7 600.362 1191.09 598.908 1193.85L550.712 1285.25C549.973 1286.65 548.461 1287.43 546.911 1287.1C532.446 1284.09 460.376 1266.47 423.932 1208.36C423.399 1207.51 423.247 1206.46 423.507 1205.49Z" fill="#19BB00" fill-opacity="0.32" stroke="black" stroke-width="14.6526"/>
<path d="M901.851 1205.11L859.429 1133.75C857.989 1131.32 854.441 1131.36 852.906 1133.73C831.89 1166.09 795.644 1181 782.97 1185.41C780.69 1186.2 779.647 1188.91 780.876 1190.99L830.338 1274.56C831.076 1275.81 832.471 1276.49 833.864 1276.09C841.684 1273.86 868.518 1262.64 901.803 1208.92C902.518 1207.77 902.545 1206.28 901.851 1205.11Z" fill="#19BB00" fill-opacity="0.32" stroke="black" stroke-width="14.6526"/>
<path d="M631.895 1269.29L598.926 1190.53L573.284 1245.48L631.895 1269.29Z" fill="black" stroke="black" stroke-width="14.6526" stroke-linejoin="round"/>
<path d="M747.284 1265.62L780.252 1186.87L805.895 1241.81L747.284 1265.62Z" fill="black" stroke="black" stroke-width="14.6526" stroke-linejoin="round"/>
<path d="M489.032 1120.93L445.074 1131.92L481.705 1155.73L489.032 1120.93Z" fill="black" stroke="black" stroke-width="14.6526" stroke-linejoin="round"/>
<path d="M816.884 1120.93L857.179 1131.92L831.537 1155.73L816.884 1120.93Z" fill="black" stroke="black" stroke-width="14.6526" stroke-linejoin="round"/>
<path d="M679.632 867.522C697.73 891.137 725.154 917.3 767.46 911.334C809.766 905.368 828.589 876.185 823.039 852.551" stroke="black" stroke-width="14.6526"/>
</g>
<defs>
<clipPath id="clip0_65_1017">
<rect width="732.632" height="1172.21" fill="white" transform="translate(329.685 157.517)"/>
</clipPath>
</defs>
</svg>
