<svg width="345" height="319" viewBox="0 0 345 319" fill="none" xmlns="http://www.w3.org/2000/svg">
<mask id="mask0_207_56" style="mask-type:alpha" maskUnits="userSpaceOnUse" x="0" y="0" width="345" height="319">
<path d="M344.85 0H3.05176e-05V319H314.85C331.419 319 344.85 305.569 344.85 289V0Z" fill="#D9D9D9"/>
<path d="M344.35 0.5H0.500031V318.5H314.85C331.143 318.5 344.35 305.292 344.35 289V0.5Z" stroke="#A354FF" stroke-opacity="0.1"/>
</mask>
<g mask="url(#mask0_207_56)">
</g>
<mask id="mask1_207_56" style="mask-type:alpha" maskUnits="userSpaceOnUse" x="0" y="0" width="345" height="319">
<path d="M344.85 0H3.05176e-05V319H314.85C331.419 319 344.85 305.569 344.85 289V0Z" fill="#D9D9D9"/>
<path d="M344.35 0.5H0.500031V318.5H314.85C331.143 318.5 344.35 305.292 344.35 289V0.5Z" stroke="#A354FF" stroke-opacity="0.1"/>
</mask>
<g mask="url(#mask1_207_56)">
<path d="M345.159 709.839C176.989 709.839 40.6602 550.908 40.6602 354.857C40.6602 158.806 176.989 -0.124878 345.159 -0.124878C513.33 -0.124878 649.659 158.806 649.659 354.857C649.659 550.908 513.33 709.839 345.159 709.839Z" fill="url(#paint0_linear_207_56)" fill-opacity="0.1"/>
<path d="M41.1602 354.857C41.1602 550.707 177.334 709.339 345.159 709.339C512.984 709.339 649.159 550.707 649.159 354.857C649.159 159.007 512.984 0.375122 345.159 0.375122C177.334 0.375122 41.1602 159.007 41.1602 354.857Z" stroke="#A354FF" stroke-opacity="0.1"/>
<path d="M41.0719 354.857C41.0719 550.779 177.297 709.454 345.159 709.454C513.023 709.454 649.248 550.779 649.248 354.857C649.248 158.936 513.023 0.260376 345.159 0.260376C177.297 0.260376 41.0719 158.936 41.0719 354.857Z" stroke="#A354FF" stroke-opacity="0.1"/>
<path d="M345.159 671.628C195.128 671.628 73.5028 529.805 73.5028 354.857C73.5028 179.909 195.128 38.0861 345.159 38.0861C495.191 38.0861 616.816 179.909 616.816 354.857C616.816 529.805 495.191 671.628 345.159 671.628Z" fill="url(#paint1_linear_207_56)" fill-opacity="0.25"/>
<path d="M74.0028 354.857C74.0028 529.604 195.473 671.128 345.159 671.128C494.846 671.128 616.316 529.604 616.316 354.857C616.316 180.111 494.846 38.5861 345.159 38.5861C195.473 38.5861 74.0028 180.111 74.0028 354.857Z" stroke="#790EF5" stroke-opacity="0.05"/>
<path d="M73.9147 354.857C73.9147 529.676 195.435 671.243 345.159 671.243C494.884 671.243 616.405 529.676 616.405 354.857C616.405 180.038 494.884 38.4709 345.159 38.4709C195.435 38.4709 73.9147 180.038 73.9147 354.857Z" stroke="#A354FF" stroke-opacity="0.1"/>
</g>
<defs>
<linearGradient id="paint0_linear_207_56" x1="345.159" y1="-0.124878" x2="345.159" y2="709.839" gradientUnits="userSpaceOnUse">
<stop stop-color="#790EF5"/>
<stop offset="0.503" stop-color="white" stop-opacity="0"/>
</linearGradient>
<linearGradient id="paint1_linear_207_56" x1="345.159" y1="38.0861" x2="345.159" y2="671.628" gradientUnits="userSpaceOnUse">
<stop stop-color="#790EF5"/>
<stop offset="0.503" stop-color="white" stop-opacity="0"/>
</linearGradient>
</defs>
</svg>
