<svg width="597" height="588" viewBox="0 0 597 588" fill="none" xmlns="http://www.w3.org/2000/svg">
<path d="M435.031 281.157C432.149 279.13 429.004 277.475 425.909 275.795C416.028 270.635 405.813 266.141 395.525 261.852C385.913 257.841 376.221 253.956 366.211 251.034C350.576 246.555 334.405 244.188 318.199 243.124C313.208 242.817 308.227 242.353 303.222 242.398C300.822 242.371 298.426 242.346 296.026 242.319L287.853 242.825C282.15 243.084 276.511 243.979 270.842 244.608C265.234 245.707 259.575 246.58 254.026 247.961C249.382 249.093 244.686 250.028 240.132 251.493C235.381 252.94 230.58 254.224 225.955 256.052C221.284 257.756 216.611 259.448 212.093 261.53C210.151 262.379 208.206 263.225 206.261 264.072L198.314 268.266C188.274 273.691 178.31 279.385 169.479 286.67C164.994 290.357 160.421 293.961 156.19 297.942C154.265 299.866 152.272 301.832 150.938 304.221C149.771 306.38 149.543 308.937 149.751 311.352C152.76 309.37 154.783 306.355 157.056 303.631C160.442 299.919 164.421 296.817 168.265 293.605C172.435 290.063 179.186 284.844 182.129 283.02C190.503 277.525 199.406 272.895 208.25 268.22C212 266.566 215.77 264.941 219.525 263.296C223.594 261.788 227.667 260.287 231.738 258.784C236.146 257.464 240.552 256.132 244.963 254.823L258.753 251.557C262.865 250.775 266.975 250.01 271.088 249.234C275.489 248.59 279.924 248.168 284.338 247.608C288.152 247.373 291.968 247.128 295.781 246.902C302.48 246.94 309.171 247.002 315.848 247.574C333.005 248.654 347.54 250.675 363.382 254.977C374.137 258.067 384.54 262.222 394.85 266.537C404.425 270.522 415.541 275.511 423.044 279.446C426.397 281.146 429.642 283.046 432.948 284.824C435.387 285.767 436.076 285.819 438.739 286.162C437.505 283.732 437.048 282.965 435.018 281.154L435.031 281.157Z" fill="#212121"/>
<g clip-path="url(#clip0_203_699)">
<path d="M439.674 282.396C437.695 278.68 435.039 274.293 433.713 271.831C432.528 269.688 431.319 267.557 430.109 265.429C429.595 264.643 429.293 263.694 428.609 263.039C426.657 261.552 424.711 264.027 426 265.531C426.013 265.551 426.027 265.568 426.04 265.588C426.724 266.782 427.393 267.984 428.077 269.174C430.253 273.036 433.023 277.988 435.844 282.891C435.792 282.928 435.739 282.965 435.686 283.002C434.604 283.738 433.453 284.371 432.305 285.003C429.047 286.837 422.844 289.616 418.131 291.948C416.193 292.918 415.609 293.249 414.652 293.795C414.344 294.013 413.998 294.194 413.694 294.418C413.444 294.563 413.236 294.776 413.117 295.041C412.796 295.71 413.138 296.587 413.831 296.89C414.187 297.028 414.567 297.073 414.926 296.927C414.921 296.932 414.902 296.934 414.874 296.939C415.031 296.896 415.187 296.84 415.346 296.794C416.19 296.547 417.004 296.223 417.814 295.89C421.105 294.495 424.34 292.974 427.574 291.453C430.282 290.193 432.935 288.826 435.538 287.369C437.312 286.247 440.47 284.996 439.67 282.398L439.674 282.396Z" fill="#212121"/>
</g>
<g clip-path="url(#clip1_203_699)">
<path d="M150.745 312.051C154.879 311.25 159.852 309.999 162.595 309.454C164.991 308.949 167.383 308.419 169.773 307.887C170.675 307.627 171.67 307.616 172.498 307.154C174.491 305.725 172.697 303.138 170.881 303.929C170.858 303.936 170.837 303.944 170.814 303.95C169.473 304.253 168.128 304.54 166.788 304.845C162.458 305.791 156.911 306.987 151.396 308.245C151.376 308.183 151.356 308.122 151.336 308.061C150.95 306.811 150.683 305.524 150.416 304.242C149.619 300.588 148.783 293.843 147.937 288.653C147.578 286.516 147.434 285.86 147.192 284.786C147.074 284.427 147.003 284.043 146.878 283.687C146.813 283.405 146.67 283.143 146.451 282.953C145.906 282.449 144.967 282.519 144.474 283.092C144.238 283.392 144.083 283.742 144.117 284.128C144.115 284.122 144.118 284.103 144.121 284.075C144.117 284.238 144.124 284.403 144.122 284.568C144.11 285.448 144.181 286.321 144.262 287.193C144.629 290.749 145.134 294.288 145.638 297.826C146.048 300.784 146.576 303.722 147.205 306.638C147.757 308.663 148.027 312.049 150.745 312.046L150.745 312.051Z" fill="#212121"/>
</g>
<defs>
<clipPath id="clip0_203_699">
<rect width="21" height="37" fill="white" transform="translate(426.493 262.018) rotate(24.0979)"/>
</clipPath>
<clipPath id="clip1_203_699">
<rect width="21" height="37" fill="white" transform="translate(174.095 305.431) rotate(131.165)"/>
</clipPath>
</defs>
</svg>
