<svg width="112" height="111" viewBox="0 0 112 111" fill="none" xmlns="http://www.w3.org/2000/svg">
<path d="M4.10251 22.6668C1.50069 20.2511 0.206787 17.2609 0.206787 13.7031C0.206787 10.1453 1.50761 7.0236 4.10251 4.60098C6.70433 2.18529 10.0535 0.973984 14.1569 0.973984C18.2603 0.973984 21.478 2.18529 24.0729 4.60098C26.6747 7.01667 27.9686 10.0553 27.9686 13.7031C27.9686 17.3509 26.6678 20.2511 24.0729 22.6668C21.4711 25.0825 18.1703 26.2938 14.1569 26.2938C10.1434 26.2938 6.70433 25.0825 4.10251 22.6668ZM25.7821 36.5241V110.587H2.38643V36.5241H25.7821Z" fill="#FEFFFC"/>
<path d="M103.663 43.8404C108.763 49.3778 111.31 56.978 111.31 66.6546V109.279H89.0906V69.6586C89.0906 64.7788 87.8243 60.9856 85.2986 58.2861C82.7729 55.5866 79.3684 54.23 75.1059 54.23C70.8433 54.23 67.4387 55.5797 64.913 58.2861C62.3873 60.9856 61.121 64.7788 61.121 69.6586V109.279H38.7704V36.3164H61.121V45.9931C63.3837 42.7675 66.4355 40.2204 70.269 38.3446C74.1025 36.4688 78.4135 35.5343 83.2088 35.5343C91.7478 35.5343 98.5705 38.303 103.663 43.8335V43.8404Z" fill="#FEFFFC"/>
</svg>
