<svg width="128" height="30" viewBox="0 0 128 30" fill="none" xmlns="http://www.w3.org/2000/svg">
<path d="M48.768 23.288C47.504 23.288 46.424 23.104 45.528 22.736C44.648 22.352 43.968 21.784 43.488 21.032C43.024 20.28 42.792 19.328 42.792 18.176V17.432H46.296V18.176C46.296 18.912 46.496 19.464 46.896 19.832C47.312 20.184 47.928 20.36 48.744 20.36C49.528 20.36 50.12 20.104 50.52 19.592C50.92 19.064 51.12 18.312 51.12 17.336V6.536H54.72V17.336C54.72 18.664 54.488 19.776 54.024 20.672C53.56 21.552 52.88 22.208 51.984 22.64C51.104 23.072 50.032 23.288 48.768 23.288ZM62.8449 23.288C61.4689 23.288 60.3009 23.056 59.3409 22.592C58.3809 22.112 57.6529 21.384 57.1569 20.408C56.6609 19.416 56.4129 18.176 56.4129 16.688C56.4129 15.168 56.6609 13.928 57.1569 12.968C57.6529 11.992 58.3809 11.272 59.3409 10.808C60.3009 10.328 61.4689 10.088 62.8449 10.088C64.2529 10.088 65.4289 10.328 66.3729 10.808C67.3329 11.272 68.0609 11.992 68.5569 12.968C69.0529 13.928 69.3009 15.168 69.3009 16.688C69.3009 18.176 69.0529 19.416 68.5569 20.408C68.0609 21.384 67.3329 22.112 66.3729 22.592C65.4289 23.056 64.2529 23.288 62.8449 23.288ZM62.8449 20.696C63.5809 20.696 64.1649 20.56 64.5969 20.288C65.0449 20.016 65.3729 19.6 65.5809 19.04C65.7889 18.48 65.8929 17.792 65.8929 16.976V16.4C65.8929 15.584 65.7889 14.896 65.5809 14.336C65.3729 13.776 65.0449 13.36 64.5969 13.088C64.1649 12.8 63.5809 12.656 62.8449 12.656C62.1249 12.656 61.5409 12.8 61.0929 13.088C60.6609 13.36 60.3409 13.776 60.1329 14.336C59.9249 14.896 59.8209 15.584 59.8209 16.4V16.976C59.8209 17.792 59.9249 18.48 60.1329 19.04C60.3409 19.6 60.6609 20.016 61.0929 20.288C61.5409 20.56 62.1249 20.696 62.8449 20.696ZM77.8517 23.288C77.0357 23.288 76.2837 23.128 75.5957 22.808C74.9237 22.472 74.3797 21.968 73.9637 21.296H73.7957L73.5317 23H70.7957V5.648H74.1317V11.768H74.2757C74.5317 11.4 74.8437 11.088 75.2117 10.832C75.5797 10.576 75.9957 10.392 76.4597 10.28C76.9237 10.152 77.4277 10.088 77.9717 10.088C78.9637 10.088 79.8277 10.32 80.5637 10.784C81.3157 11.248 81.8997 11.968 82.3157 12.944C82.7317 13.904 82.9397 15.144 82.9397 16.664C82.9397 18.184 82.7317 19.432 82.3157 20.408C81.9157 21.384 81.3317 22.112 80.5637 22.592C79.8117 23.056 78.9077 23.288 77.8517 23.288ZM76.8197 20.552C77.4917 20.552 78.0197 20.424 78.4037 20.168C78.8037 19.896 79.0917 19.496 79.2677 18.968C79.4437 18.44 79.5317 17.776 79.5317 16.976V16.424C79.5317 15.624 79.4437 14.96 79.2677 14.432C79.0917 13.888 78.8037 13.488 78.4037 13.232C78.0197 12.96 77.4917 12.824 76.8197 12.824C76.3397 12.824 75.9317 12.912 75.5957 13.088C75.2597 13.248 74.9797 13.488 74.7557 13.808C74.5477 14.112 74.3877 14.496 74.2757 14.96C74.1637 15.424 74.1077 15.936 74.1077 16.496V16.928C74.1077 17.68 74.2037 18.328 74.3957 18.872C74.5877 19.416 74.8837 19.832 75.2837 20.12C75.6837 20.408 76.1957 20.552 76.8197 20.552ZM89.5492 23.288C88.6692 23.288 87.8772 23.192 87.1732 23C86.4692 22.808 85.8692 22.544 85.3732 22.208C84.8772 21.856 84.4932 21.44 84.2212 20.96C83.9652 20.48 83.8372 19.936 83.8372 19.328C83.8372 19.264 83.8372 19.2 83.8372 19.136C83.8372 19.072 83.8452 19.024 83.8612 18.992H87.0772C87.0772 19.024 87.0772 19.056 87.0772 19.088C87.0772 19.12 87.0772 19.152 87.0772 19.184C87.0932 19.584 87.2212 19.912 87.4612 20.168C87.7012 20.408 88.0132 20.584 88.3972 20.696C88.7972 20.808 89.2132 20.864 89.6452 20.864C90.0292 20.864 90.3972 20.832 90.7492 20.768C91.1172 20.688 91.4212 20.552 91.6612 20.36C91.9172 20.168 92.0452 19.92 92.0452 19.616C92.0452 19.232 91.8852 18.936 91.5652 18.728C91.2612 18.52 90.8532 18.352 90.3412 18.224C89.8452 18.096 89.3012 17.952 88.7092 17.792C88.1652 17.664 87.6212 17.52 87.0772 17.36C86.5332 17.184 86.0372 16.96 85.5892 16.688C85.1572 16.416 84.8052 16.064 84.5332 15.632C84.2612 15.184 84.1252 14.624 84.1252 13.952C84.1252 13.296 84.2692 12.728 84.5572 12.248C84.8452 11.752 85.2372 11.344 85.7332 11.024C86.2452 10.704 86.8372 10.472 87.5092 10.328C88.1972 10.168 88.9332 10.088 89.7172 10.088C90.4532 10.088 91.1412 10.168 91.7812 10.328C92.4212 10.472 92.9812 10.696 93.4612 11C93.9412 11.288 94.3172 11.656 94.5892 12.104C94.8612 12.536 94.9972 13.024 94.9972 13.568C94.9972 13.68 94.9972 13.784 94.9972 13.88C94.9972 13.976 94.9892 14.04 94.9732 14.072H91.7812V13.88C91.7812 13.592 91.6932 13.352 91.5172 13.16C91.3412 12.952 91.0852 12.792 90.7492 12.68C90.4292 12.568 90.0372 12.512 89.5732 12.512C89.2532 12.512 88.9572 12.536 88.6852 12.584C88.4292 12.632 88.2052 12.704 88.0132 12.8C87.8212 12.896 87.6692 13.016 87.5572 13.16C87.4612 13.288 87.4132 13.448 87.4132 13.64C87.4132 13.912 87.5252 14.136 87.7492 14.312C87.9892 14.472 88.3012 14.608 88.6852 14.72C89.0692 14.832 89.4932 14.952 89.9572 15.08C90.5332 15.24 91.1332 15.4 91.7572 15.56C92.3972 15.704 92.9892 15.904 93.5332 16.16C94.0772 16.416 94.5172 16.784 94.8532 17.264C95.1892 17.728 95.3573 18.36 95.3573 19.16C95.3573 19.928 95.2052 20.576 94.9012 21.104C94.6132 21.632 94.2052 22.056 93.6772 22.376C93.1492 22.696 92.5332 22.928 91.8292 23.072C91.1252 23.216 90.3652 23.288 89.5492 23.288ZM100.581 23.288C99.7812 23.288 99.1332 23.144 98.6372 22.856C98.1412 22.568 97.7812 22.184 97.5572 21.704C97.3332 21.208 97.2212 20.664 97.2212 20.072V12.944H95.6612V10.376H97.3412L97.9652 6.776H100.557V10.376H102.861V12.944H100.557V19.52C100.557 19.904 100.645 20.2 100.821 20.408C100.997 20.6 101.285 20.696 101.685 20.696H102.861V22.904C102.669 22.968 102.445 23.024 102.189 23.072C101.933 23.136 101.661 23.184 101.373 23.216C101.085 23.264 100.821 23.288 100.581 23.288ZM109.792 23.288C108.4 23.288 107.232 23.056 106.288 22.592C105.344 22.112 104.632 21.384 104.152 20.408C103.672 19.432 103.432 18.192 103.432 16.688C103.432 15.168 103.672 13.928 104.152 12.968C104.632 11.992 105.336 11.272 106.264 10.808C107.208 10.328 108.36 10.088 109.72 10.088C111 10.088 112.08 10.32 112.96 10.784C113.84 11.232 114.504 11.936 114.952 12.896C115.4 13.84 115.624 15.064 115.624 16.568V17.432H106.816C106.848 18.168 106.96 18.792 107.152 19.304C107.36 19.816 107.672 20.2 108.088 20.456C108.52 20.696 109.088 20.816 109.792 20.816C110.176 20.816 110.52 20.768 110.824 20.672C111.144 20.576 111.416 20.432 111.64 20.24C111.864 20.048 112.04 19.808 112.168 19.52C112.296 19.232 112.36 18.904 112.36 18.536H115.624C115.624 19.336 115.48 20.032 115.192 20.624C114.904 21.216 114.504 21.712 113.992 22.112C113.48 22.496 112.864 22.792 112.144 23C111.44 23.192 110.656 23.288 109.792 23.288ZM106.864 15.32H112.192C112.192 14.84 112.128 14.424 112 14.072C111.888 13.72 111.728 13.432 111.52 13.208C111.312 12.984 111.056 12.824 110.752 12.728C110.464 12.616 110.136 12.56 109.768 12.56C109.16 12.56 108.648 12.664 108.232 12.872C107.832 13.064 107.52 13.368 107.296 13.784C107.088 14.184 106.944 14.696 106.864 15.32ZM117.112 23V5.648H120.448V23H117.112ZM122.55 23V5.648H125.886V23H122.55Z" fill="#212121"/>
<path d="M1.71063e-06 19.8972C2.70645e-06 25.4768 4.61707 30 10.3125 30L10.3125 20.4153C10.3125 14.8357 5.69544 10.3125 0 10.3125L1.71063e-06 19.8972Z" fill="#9335FF"/>
<path d="M19.6875 9.58468C19.6875 15.1643 24.3046 19.6875 30 19.6875L30 10.1028C30 4.52315 25.3829 -2.38638e-05 19.6875 -2.28882e-05L19.6875 9.58468Z" fill="#9335FF"/>
<path d="M10.1028 -1.52588e-05C4.52318 -1.55077e-05 2.43893e-07 4.61705 0 10.3125H9.58471C15.1643 10.3125 19.6875 5.69542 19.6875 -1.48311e-05L10.1028 -1.52588e-05Z" fill="#790EF5"/>
<path d="M20.4153 19.6875C14.8357 19.6875 10.3125 24.3046 10.3125 30H19.8972C25.4768 30 30 25.3829 30 19.6875L20.4153 19.6875Z" fill="#790EF5"/>
</svg>
