<svg width="33" height="33" viewBox="0 0 33 33" fill="none" xmlns="http://www.w3.org/2000/svg">
<path d="M1.83179e-06 21.3066C2.89814e-06 27.2814 4.9441 32.1249 11.0429 32.1249V21.8614C11.0429 15.8865 6.09884 11.043 0 11.043L1.83179e-06 21.3066Z" fill="#FCFCFC"/>
<path d="M21.082 10.2636C21.082 16.2384 26.026 21.0819 32.1249 21.0819V10.8184C32.1249 4.84355 27.1808 -1.04461e-06 21.0819 0L21.082 10.2636Z" fill="#FCFCFC"/>
<path d="M10.8184 0C4.84356 -2.66526e-07 2.61167e-07 4.94409 0 11.0429H10.2636C16.2385 11.0429 21.082 6.09885 21.082 4.57946e-07L10.8184 0Z" fill="white"/>
<path d="M21.8614 21.082C15.8866 21.082 11.043 26.0262 11.043 32.125H21.3066C27.2814 32.125 32.1249 27.1809 32.1249 21.082H21.8614Z" fill="white"/>
</svg>
