<svg width="62" height="62" viewBox="0 0 62 62" fill="none" xmlns="http://www.w3.org/2000/svg">
<rect width="62" height="62" rx="31" fill="white" fill-opacity="0.35"/>
<path d="M14.8751 36.1816C14.8751 42.1564 19.8192 46.9999 25.9181 46.9999V36.7364C25.918 30.7615 20.974 25.918 14.8751 25.918L14.8751 36.1816Z" fill="#9A43FF"/>
<path d="M35.9571 25.1386C35.9571 31.1134 40.9012 35.9569 47 35.9569V25.6934C47 19.7186 42.0559 14.875 35.957 14.875L35.9571 25.1386Z" fill="#9A43FF"/>
<path d="M25.6935 14.875C19.7187 14.875 14.8751 19.8191 14.8751 25.9179H25.1387C31.1136 25.9179 35.9571 20.9738 35.9571 14.875L25.6935 14.875Z" fill="#790EF5"/>
<path d="M36.7365 35.957C30.7617 35.957 25.9181 40.9012 25.9181 47H36.1817C42.1565 47 47 42.0559 47 35.957H36.7365Z" fill="#790EF5"/>
</svg>
