<svg width="129" height="33" viewBox="0 0 129 33" fill="none" xmlns="http://www.w3.org/2000/svg">
<path d="M49.768 25.288C48.504 25.288 47.424 25.104 46.528 24.736C45.648 24.352 44.968 23.784 44.488 23.032C44.024 22.28 43.792 21.328 43.792 20.176V19.432H47.296V20.176C47.296 20.912 47.496 21.464 47.896 21.832C48.312 22.184 48.928 22.36 49.744 22.36C50.528 22.36 51.12 22.104 51.52 21.592C51.92 21.064 52.12 20.312 52.12 19.336V8.536H55.72V19.336C55.72 20.664 55.488 21.776 55.024 22.672C54.56 23.552 53.88 24.208 52.984 24.64C52.104 25.072 51.032 25.288 49.768 25.288ZM63.8449 25.288C62.4689 25.288 61.3009 25.056 60.3409 24.592C59.3809 24.112 58.6529 23.384 58.1569 22.408C57.6609 21.416 57.4129 20.176 57.4129 18.688C57.4129 17.168 57.6609 15.928 58.1569 14.968C58.6529 13.992 59.3809 13.272 60.3409 12.808C61.3009 12.328 62.4689 12.088 63.8449 12.088C65.2529 12.088 66.4289 12.328 67.3729 12.808C68.3329 13.272 69.0609 13.992 69.5569 14.968C70.0529 15.928 70.3009 17.168 70.3009 18.688C70.3009 20.176 70.0529 21.416 69.5569 22.408C69.0609 23.384 68.3329 24.112 67.3729 24.592C66.4289 25.056 65.2529 25.288 63.8449 25.288ZM63.8449 22.696C64.5809 22.696 65.1649 22.56 65.5969 22.288C66.0449 22.016 66.3729 21.6 66.5809 21.04C66.7889 20.48 66.8929 19.792 66.8929 18.976V18.4C66.8929 17.584 66.7889 16.896 66.5809 16.336C66.3729 15.776 66.0449 15.36 65.5969 15.088C65.1649 14.8 64.5809 14.656 63.8449 14.656C63.1249 14.656 62.5409 14.8 62.0929 15.088C61.6609 15.36 61.3409 15.776 61.1329 16.336C60.9249 16.896 60.8209 17.584 60.8209 18.4V18.976C60.8209 19.792 60.9249 20.48 61.1329 21.04C61.3409 21.6 61.6609 22.016 62.0929 22.288C62.5409 22.56 63.1249 22.696 63.8449 22.696ZM78.8517 25.288C78.0357 25.288 77.2837 25.128 76.5957 24.808C75.9237 24.472 75.3797 23.968 74.9637 23.296H74.7957L74.5317 25H71.7957V7.648H75.1317V13.768H75.2757C75.5317 13.4 75.8437 13.088 76.2117 12.832C76.5797 12.576 76.9957 12.392 77.4597 12.28C77.9237 12.152 78.4277 12.088 78.9717 12.088C79.9637 12.088 80.8277 12.32 81.5637 12.784C82.3157 13.248 82.8997 13.968 83.3157 14.944C83.7317 15.904 83.9397 17.144 83.9397 18.664C83.9397 20.184 83.7317 21.432 83.3157 22.408C82.9157 23.384 82.3317 24.112 81.5637 24.592C80.8117 25.056 79.9077 25.288 78.8517 25.288ZM77.8197 22.552C78.4917 22.552 79.0197 22.424 79.4037 22.168C79.8037 21.896 80.0917 21.496 80.2677 20.968C80.4437 20.44 80.5317 19.776 80.5317 18.976V18.424C80.5317 17.624 80.4437 16.96 80.2677 16.432C80.0917 15.888 79.8037 15.488 79.4037 15.232C79.0197 14.96 78.4917 14.824 77.8197 14.824C77.3397 14.824 76.9317 14.912 76.5957 15.088C76.2597 15.248 75.9797 15.488 75.7557 15.808C75.5477 16.112 75.3877 16.496 75.2757 16.96C75.1637 17.424 75.1077 17.936 75.1077 18.496V18.928C75.1077 19.68 75.2037 20.328 75.3957 20.872C75.5877 21.416 75.8837 21.832 76.2837 22.12C76.6837 22.408 77.1957 22.552 77.8197 22.552ZM90.5492 25.288C89.6692 25.288 88.8772 25.192 88.1732 25C87.4692 24.808 86.8692 24.544 86.3732 24.208C85.8772 23.856 85.4932 23.44 85.2212 22.96C84.9652 22.48 84.8372 21.936 84.8372 21.328C84.8372 21.264 84.8372 21.2 84.8372 21.136C84.8372 21.072 84.8452 21.024 84.8612 20.992H88.0772C88.0772 21.024 88.0772 21.056 88.0772 21.088C88.0772 21.12 88.0772 21.152 88.0772 21.184C88.0932 21.584 88.2212 21.912 88.4612 22.168C88.7012 22.408 89.0132 22.584 89.3972 22.696C89.7972 22.808 90.2132 22.864 90.6452 22.864C91.0292 22.864 91.3972 22.832 91.7492 22.768C92.1172 22.688 92.4212 22.552 92.6612 22.36C92.9172 22.168 93.0452 21.92 93.0452 21.616C93.0452 21.232 92.8852 20.936 92.5652 20.728C92.2612 20.52 91.8532 20.352 91.3412 20.224C90.8452 20.096 90.3012 19.952 89.7092 19.792C89.1652 19.664 88.6212 19.52 88.0772 19.36C87.5332 19.184 87.0372 18.96 86.5892 18.688C86.1572 18.416 85.8052 18.064 85.5332 17.632C85.2612 17.184 85.1252 16.624 85.1252 15.952C85.1252 15.296 85.2692 14.728 85.5572 14.248C85.8452 13.752 86.2372 13.344 86.7332 13.024C87.2452 12.704 87.8372 12.472 88.5092 12.328C89.1972 12.168 89.9332 12.088 90.7172 12.088C91.4532 12.088 92.1412 12.168 92.7812 12.328C93.4212 12.472 93.9812 12.696 94.4612 13C94.9412 13.288 95.3172 13.656 95.5892 14.104C95.8612 14.536 95.9972 15.024 95.9972 15.568C95.9972 15.68 95.9972 15.784 95.9972 15.88C95.9972 15.976 95.9892 16.04 95.9732 16.072H92.7812V15.88C92.7812 15.592 92.6932 15.352 92.5172 15.16C92.3412 14.952 92.0852 14.792 91.7492 14.68C91.4292 14.568 91.0372 14.512 90.5732 14.512C90.2532 14.512 89.9572 14.536 89.6852 14.584C89.4292 14.632 89.2052 14.704 89.0132 14.8C88.8212 14.896 88.6692 15.016 88.5572 15.16C88.4612 15.288 88.4132 15.448 88.4132 15.64C88.4132 15.912 88.5252 16.136 88.7492 16.312C88.9892 16.472 89.3012 16.608 89.6852 16.72C90.0692 16.832 90.4932 16.952 90.9572 17.08C91.5332 17.24 92.1332 17.4 92.7572 17.56C93.3972 17.704 93.9892 17.904 94.5332 18.16C95.0772 18.416 95.5172 18.784 95.8532 19.264C96.1892 19.728 96.3573 20.36 96.3573 21.16C96.3573 21.928 96.2052 22.576 95.9012 23.104C95.6132 23.632 95.2052 24.056 94.6772 24.376C94.1492 24.696 93.5332 24.928 92.8292 25.072C92.1252 25.216 91.3652 25.288 90.5492 25.288ZM101.581 25.288C100.781 25.288 100.133 25.144 99.6372 24.856C99.1412 24.568 98.7812 24.184 98.5572 23.704C98.3332 23.208 98.2212 22.664 98.2212 22.072V14.944H96.6612V12.376H98.3412L98.9652 8.776H101.557V12.376H103.861V14.944H101.557V21.52C101.557 21.904 101.645 22.2 101.821 22.408C101.997 22.6 102.285 22.696 102.685 22.696H103.861V24.904C103.669 24.968 103.445 25.024 103.189 25.072C102.933 25.136 102.661 25.184 102.373 25.216C102.085 25.264 101.821 25.288 101.581 25.288ZM110.792 25.288C109.4 25.288 108.232 25.056 107.288 24.592C106.344 24.112 105.632 23.384 105.152 22.408C104.672 21.432 104.432 20.192 104.432 18.688C104.432 17.168 104.672 15.928 105.152 14.968C105.632 13.992 106.336 13.272 107.264 12.808C108.208 12.328 109.36 12.088 110.72 12.088C112 12.088 113.08 12.32 113.96 12.784C114.84 13.232 115.504 13.936 115.952 14.896C116.4 15.84 116.624 17.064 116.624 18.568V19.432H107.816C107.848 20.168 107.96 20.792 108.152 21.304C108.36 21.816 108.672 22.2 109.088 22.456C109.52 22.696 110.088 22.816 110.792 22.816C111.176 22.816 111.52 22.768 111.824 22.672C112.144 22.576 112.416 22.432 112.64 22.24C112.864 22.048 113.04 21.808 113.168 21.52C113.296 21.232 113.36 20.904 113.36 20.536H116.624C116.624 21.336 116.48 22.032 116.192 22.624C115.904 23.216 115.504 23.712 114.992 24.112C114.48 24.496 113.864 24.792 113.144 25C112.44 25.192 111.656 25.288 110.792 25.288ZM107.864 17.32H113.192C113.192 16.84 113.128 16.424 113 16.072C112.888 15.72 112.728 15.432 112.52 15.208C112.312 14.984 112.056 14.824 111.752 14.728C111.464 14.616 111.136 14.56 110.768 14.56C110.16 14.56 109.648 14.664 109.232 14.872C108.832 15.064 108.52 15.368 108.296 15.784C108.088 16.184 107.944 16.696 107.864 17.32ZM118.112 25V7.648H121.448V25H118.112ZM123.55 25V7.648H126.886V25H123.55Z" fill="#212121"/>
<path d="M1.88169e-06 21.8869C2.97709e-06 28.0245 5.07878 33 11.3438 33L11.3438 22.4568C11.3438 16.3192 6.26498 11.3437 0 11.3437L1.88169e-06 21.8869Z" fill="#9335FF"/>
<path d="M21.6563 10.5432C21.6563 16.6807 26.735 21.6562 33 21.6562L33 11.1131C33 4.97547 27.9212 -2.7776e-05 21.6562 -2.67029e-05L21.6563 10.5432Z" fill="#9335FF"/>
<path d="M11.1131 -1.52588e-05C4.9755 -1.55326e-05 2.68282e-07 5.07876 0 11.3437H10.5432C16.6808 11.3437 21.6563 6.26497 21.6563 -1.47884e-05L11.1131 -1.52588e-05Z" fill="#790EF5"/>
<path d="M22.4568 21.6562C16.3192 21.6562 11.3438 26.735 11.3438 33H21.8869C28.0245 33 33 27.9212 33 21.6562L22.4568 21.6562Z" fill="#790EF5"/>
</svg>
