<svg width="24" height="24" viewBox="0 0 24 24" fill="none" xmlns="http://www.w3.org/2000/svg">
<path d="M16.25 7C16.25 4.65279 14.3472 2.75 12 2.75C9.65279 2.75 7.75 4.65279 7.75 7V11C7.75 13.3472 9.65279 15.25 12 15.25C14.3472 15.25 16.25 13.3472 16.25 11V7Z" stroke="#212121" stroke-width="1.5"/>
<path d="M12 18.75V21.25" stroke="#212121" stroke-width="1.5" stroke-linecap="round"/>
<path fill-rule="evenodd" clip-rule="evenodd" d="M4.75006 11C4.33585 11 3.99638 11.3369 4.03469 11.7493C4.41246 15.8162 7.83446 19 12.0001 19C16.1657 19 19.5877 15.8162 19.9654 11.7493C20.0037 11.3369 19.6643 11 19.2501 11C18.8359 11 18.5046 11.3372 18.4574 11.7487C18.0861 14.9859 15.3367 17.5 12.0001 17.5C8.66344 17.5 5.914 14.9859 5.54272 11.7487C5.49552 11.3372 5.16428 11 4.75006 11Z" fill="#212121"/>
<path d="M10.75 10.25H13.25" stroke="#212121" stroke-width="1.5" stroke-linecap="round"/>
<path d="M10.75 7.25H12.25" stroke="#212121" stroke-width="1.5" stroke-linecap="round"/>
</svg>
