<svg width="24" height="24" viewBox="0 0 24 24" fill="none" xmlns="http://www.w3.org/2000/svg">
<g clip-path="url(#clip0_16_1442)">
<path d="M12 22C6.477 22 2 17.523 2 12C2 6.477 6.477 2 12 2C17.523 2 22 6.477 22 12C22 17.523 17.523 22 12 22ZM10 9C9.44772 9 9 9.44772 9 10V14C9 14.5523 9.44772 15 10 15C10.5523 15 11 14.5523 11 14V10C11 9.44772 10.5523 9 10 9ZM14 9C13.4477 9 13 9.44772 13 10V14C13 14.5523 13.4477 15 14 15C14.5523 15 15 14.5523 15 14V10C15 9.44772 14.5523 9 14 9Z" fill="#212121"/>
</g>
<defs>
<clipPath id="clip0_16_1442">
<rect width="24" height="24" fill="white"/>
</clipPath>
</defs>
</svg>
