<svg width="76" height="76" viewBox="0 0 76 76" fill="none" xmlns="http://www.w3.org/2000/svg">
<rect width="76" height="76" rx="38" fill="url(#paint0_linear_1308_223)"/>
<path d="M36.0948 22.9286C36.4547 22.1618 37.5453 22.1618 37.9052 22.9286L42.0266 31.7091C42.1683 32.0109 42.4511 32.2223 42.7808 32.2727L52.0762 33.6929C52.8808 33.8158 53.2093 34.7972 52.6409 35.3798L45.8525 42.3374C45.6308 42.5646 45.5302 42.8835 45.5813 43.1968L47.175 52.9675C47.3094 53.7914 46.4349 54.4076 45.7043 54.0037L37.4838 49.4595C37.1827 49.2931 36.8173 49.2931 36.5162 49.4595L28.2957 54.0037C27.5651 54.4076 26.6906 53.7914 26.825 52.9675L28.4187 43.1968C28.4698 42.8835 28.3692 42.5646 28.1475 42.3374L21.3591 35.3798C20.7907 34.7972 21.1192 33.8158 21.9238 33.6929L31.2192 32.2727C31.5489 32.2223 31.8317 32.0109 31.9734 31.7091L36.0948 22.9286Z" stroke="white" stroke-width="2" stroke-linecap="round"/>
<defs>
<linearGradient id="paint0_linear_1308_223" x1="38" y1="0" x2="38" y2="76" gradientUnits="userSpaceOnUse">
<stop stop-color="#FFC739" stop-opacity="0.8"/>
<stop offset="1" stop-color="#B74000" stop-opacity="0.8"/>
</linearGradient>
</defs>
</svg>
