<svg width="24" height="24" viewBox="0 0 24 24" fill="none" xmlns="http://www.w3.org/2000/svg">
<path d="M14.9233 7.08817L12.8609 3.49797C12.4779 2.83136 11.5173 2.82817 11.13 3.49222L8.95364 7.22309C8.66538 7.71726 8.1793 8.06432 7.61831 8.17651L4.6446 8.77126C3.87441 8.92529 3.5743 9.86638 4.11312 10.4379L6.26395 12.719C6.72388 13.2068 6.9088 13.8926 6.75645 14.5455L5.78292 18.7178C5.5828 19.5755 6.5089 20.2543 7.26657 19.8053L10.9808 17.6043C11.6095 17.2318 12.3913 17.2318 13.02 17.6043L16.7342 19.8053C17.4919 20.2543 18.418 19.5755 18.2179 18.7178L17.2358 14.509C17.0882 13.8763 17.257 13.2114 17.6887 12.7258L19.8421 10.3031C20.3552 9.7259 20.0482 8.80965 19.2908 8.65819L16.2653 8.05308C15.6998 7.93998 15.2106 7.58825 14.9233 7.08817Z" stroke="white" stroke-width="2" stroke-miterlimit="10"/>
</svg>
