<svg width="1392" height="1392" viewBox="0 0 1392 1392" fill="none" xmlns="http://www.w3.org/2000/svg">
<circle cx="696" cy="696" r="696" fill="#D4D4D4" fill-opacity="0.74"/>
<mask id="mask0_269_302" style="mask-type:alpha" maskUnits="userSpaceOnUse" x="0" y="0" width="1392" height="1392">
<circle cx="696" cy="696" r="696" fill="#FFEDEF"/>
</mask>
<g mask="url(#mask0_269_302)">
<g clip-path="url(#clip0_269_302)">
<path d="M893.811 1327.9C841.061 1254.63 799.79 1112.99 794.906 1042.17L543.979 934.107L439.579 1327.9H893.811Z" fill="#F4D150" stroke="#212121" stroke-width="14.6526"/>
<mask id="mask1_269_302" style="mask-type:alpha" maskUnits="userSpaceOnUse" x="439" y="934" width="455" height="431">
<path d="M893.811 1364.53C841.061 1291.27 799.79 1112.99 794.906 1042.17L543.979 934.107L439.579 1364.53H893.811Z" fill="#AC6651"/>
</mask>
<g mask="url(#mask1_269_302)">
<g style="mix-blend-mode:multiply">
<ellipse cx="783.916" cy="926.78" rx="216.126" ry="197.811" fill="#212121"/>
</g>
</g>
<mask id="path-6-inside-1_269_302" fill="white">
<path fill-rule="evenodd" clip-rule="evenodd" d="M1003.29 710.367C1003.19 709.937 1003.09 709.508 1002.99 709.079C1002.89 708.65 1002.78 708.221 1002.68 707.793L942.621 457.131C942.561 456.876 942.501 456.622 942.44 456.368C942.379 456.113 942.317 455.859 942.256 455.605L941.994 454.511L941.989 454.512C904.558 302.694 751.524 209.343 599.231 245.831C446.938 282.32 352.823 434.885 388.256 587.182L388.249 587.184L450.49 846.967L450.541 846.955C489.381 996.795 641.282 1088.51 792.453 1052.29C943.623 1016.07 1037.47 865.478 1004.19 714.305L1004.24 714.295L1003.29 710.367Z"/>
</mask>
<path fill-rule="evenodd" clip-rule="evenodd" d="M1003.29 710.367C1003.19 709.937 1003.09 709.508 1002.99 709.079C1002.89 708.65 1002.78 708.221 1002.68 707.793L942.621 457.131C942.561 456.876 942.501 456.622 942.44 456.368C942.379 456.113 942.317 455.859 942.256 455.605L941.994 454.511L941.989 454.512C904.558 302.694 751.524 209.343 599.231 245.831C446.938 282.32 352.823 434.885 388.256 587.182L388.249 587.184L450.49 846.967L450.541 846.955C489.381 996.795 641.282 1088.51 792.453 1052.29C943.623 1016.07 1037.47 865.478 1004.19 714.305L1004.24 714.295L1003.29 710.367Z" fill="#F4D150"/>
<path d="M1003.29 710.367L989.03 713.716L989.037 713.748L989.045 713.781L1003.29 710.367ZM1002.68 707.793L988.428 711.207L988.436 711.24L988.444 711.273L1002.68 707.793ZM942.621 457.131L928.362 460.505L928.367 460.525L928.372 460.545L942.621 457.131ZM942.44 456.368L956.689 452.955L956.689 452.955L942.44 456.368ZM942.256 455.605L928.006 459.019L928.011 459.039L928.016 459.058L942.256 455.605ZM941.994 454.511L956.243 451.097L952.825 436.829L938.561 440.266L941.994 454.511ZM941.989 454.512L927.762 458.02L931.251 472.172L945.421 468.757L941.989 454.512ZM599.231 245.831L602.645 260.081L602.645 260.081L599.231 245.831ZM388.256 587.182L391.688 601.427L405.822 598.022L402.527 583.862L388.256 587.182ZM388.249 587.184L384.817 572.938L370.59 576.366L373.999 590.598L388.249 587.184ZM450.49 846.967L436.241 850.381L439.654 864.627L453.901 861.217L450.49 846.967ZM450.541 846.955L464.725 843.278L461.117 829.357L447.131 832.705L450.541 846.955ZM1004.19 714.305L1000.78 700.056L986.788 703.407L989.88 717.456L1004.19 714.305ZM1004.24 714.295L1007.65 728.544L1021.9 725.131L1018.48 710.88L1004.24 714.295ZM1017.56 707.017C1017.45 706.567 1017.35 706.116 1017.24 705.664L988.74 712.494C988.837 712.9 988.934 713.307 989.03 713.716L1017.56 707.017ZM1017.24 705.664C1017.13 705.215 1017.02 704.765 1016.91 704.314L988.444 711.273C988.543 711.678 988.642 712.085 988.74 712.494L1017.24 705.664ZM928.372 460.545L988.428 711.207L1016.93 704.379L956.871 453.717L928.372 460.545ZM956.88 453.757C956.816 453.487 956.753 453.22 956.689 452.955L928.19 459.781C928.248 460.024 928.306 460.265 928.362 460.505L956.88 453.757ZM956.689 452.955C956.625 452.686 956.56 452.418 956.496 452.152L928.016 459.058C928.075 459.3 928.133 459.541 928.19 459.781L956.689 452.955ZM927.744 457.925L928.006 459.019L956.505 452.192L956.243 451.097L927.744 457.925ZM945.421 468.757L945.426 468.756L938.561 440.266L938.556 440.267L945.421 468.757ZM956.215 451.005C916.858 291.371 755.948 193.216 595.817 231.582L602.645 260.081C747.1 225.471 892.258 314.017 927.762 458.02L956.215 451.005ZM595.817 231.582C435.685 269.948 336.727 430.365 373.984 590.502L402.527 583.862C368.918 439.405 458.19 294.691 602.645 260.081L595.817 231.582ZM391.68 601.429L391.688 601.427L384.824 572.937L384.817 572.938L391.68 601.429ZM464.74 843.553L402.498 583.77L373.999 590.598L436.241 850.381L464.74 843.553ZM447.131 832.705L447.08 832.717L453.901 861.217L453.952 861.205L447.131 832.705ZM436.358 850.631C477.198 1008.19 636.915 1104.62 795.867 1066.54L789.039 1038.04C645.65 1072.39 501.565 985.401 464.725 843.278L436.358 850.631ZM795.867 1066.54C954.819 1028.45 1053.49 870.113 1018.5 711.155L989.88 717.456C1021.45 860.842 932.428 1003.68 789.039 1038.04L795.867 1066.54ZM1000.82 700.045L1000.78 700.056L1007.6 728.555L1007.65 728.544L1000.82 700.045ZM989.045 713.781L989.986 717.709L1018.48 710.88L1017.54 706.953L989.045 713.781Z" fill="#212121" mask="url(#path-6-inside-1_269_302)"/>
</g>
<path d="M802.232 484.323C822.99 474.555 871.832 465.641 901.137 508.134" stroke="#212121" stroke-width="14.6526" stroke-linecap="round"/>
<path d="M525.953 577.025C533.538 555.374 561.42 514.294 612.267 523.182" stroke="#212121" stroke-width="14.6526" stroke-linecap="round"/>
<path opacity="0.35" d="M904.748 396.261C875.442 372.817 824.769 370.62 804.011 372.451L774.706 275.377C824.524 287.1 891.927 363.293 904.748 396.261Z" fill="#717376"/>
<path d="M530.397 156.65C530.397 156.65 551.415 142.138 640.124 119.789C728.832 97.4402 761.176 106.171 761.176 106.171L804.359 372.965C804.359 372.965 774.91 372.33 701.672 388.326C628.433 404.323 593.379 423.736 593.379 423.736L530.397 156.65Z" fill="#212121"/>
<path d="M395.569 431.062C370.659 278.674 481.042 181.357 531.105 154.493L593.379 423.736C523.047 278.674 427.316 368.178 395.569 431.062Z" fill="#212121"/>
<path opacity="0.35" d="M463.337 592.239C436.962 492.601 543.927 438.995 593.379 423.732C567.737 363.901 509.126 310.174 437.695 376.114C371.758 487.838 397.4 573.925 417.548 639.86L463.337 592.239Z" fill="#717376"/>
<path fill-rule="evenodd" clip-rule="evenodd" d="M576.334 634.076C576.752 637.053 580.537 637.717 582.642 635.569C591.672 626.353 605.555 619.582 621.67 617.667C631.175 616.538 640.321 617.233 648.469 619.397C651.23 620.13 653.945 617.799 652.981 615.109C646.881 598.092 629.662 586.906 610.946 589.13C589.183 591.716 573.637 611.455 576.223 633.219C576.257 633.505 576.294 633.791 576.334 634.076Z" fill="#212121"/>
<path fill-rule="evenodd" clip-rule="evenodd" d="M811.136 597.444C811.549 600.423 815.334 601.088 817.441 598.943C826.389 589.837 840.122 583.15 856.059 581.256C865.453 580.14 874.492 580.822 882.55 582.954C885.312 583.684 888.027 581.352 887.058 578.664C880.997 561.837 863.956 550.784 845.436 552.984C823.875 555.546 808.473 575.102 811.035 596.663C811.066 596.924 811.1 597.185 811.136 597.444Z" fill="#171921"/>
<path d="M733.648 655.438C752.771 648.162 786.119 650.36 784.066 687.355C782.241 720.234 748.507 726.763 737.76 719.096" stroke="#212121" stroke-width="14.6526"/>
<path d="M456.064 660.012C447.528 657.202 438.315 655.706 428.883 655.706C390.444 655.706 359.283 679.516 362.946 723.474C366.762 769.264 394.107 785.748 432.546 785.748C436.823 785.748 441.01 785.372 445.074 784.653C449.509 783.868 453.796 782.674 457.895 781.113" stroke="#171921" stroke-width="29.3053"/>
<path d="M459.727 780.386C451.376 783.838 442.19 785.748 432.546 785.748C394.107 785.748 366.762 769.264 362.946 723.474C359.283 679.516 390.444 655.706 428.883 655.706C440.376 655.706 451.546 657.927 461.558 662.042L459.727 780.386Z" fill="#F4D150"/>
<path d="M445.074 686.844C430.422 680.129 398.186 676.588 386.464 716.15" stroke="#171921" stroke-width="14.6526"/>
<path d="M406.611 688.674C414.548 695.39 429.689 716.148 426.758 745.453" stroke="#171921" stroke-width="14.6526"/>
<path d="M695.161 1317.19C695.161 1317.19 695.161 1317.19 699.663 1311.41L695.161 1317.19L701.468 1322.1L705.812 1315.39L705.813 1315.39L705.82 1315.38L705.854 1315.33C705.886 1315.28 705.936 1315.2 706.004 1315.1C706.064 1315.01 706.137 1314.9 706.224 1314.77C706.335 1314.6 706.468 1314.4 706.622 1314.17C707.173 1313.34 707.998 1312.12 709.076 1310.57C711.232 1307.45 714.399 1302.99 718.411 1297.66C726.447 1286.98 737.819 1272.88 751.209 1259.09C764.635 1245.27 779.878 1231.98 795.629 1222.74C811.441 1213.46 827.056 1208.66 841.547 1210.61C997.007 1231.57 1111.41 1300.43 1185.67 1402.99H184.53C244.238 1295.51 329.163 1227.09 466.85 1195.7C472.717 1194.36 480.695 1194.77 490.669 1197.09C500.541 1199.39 511.796 1203.42 523.935 1208.75C548.21 1219.42 575.308 1234.98 600.773 1251.1C626.199 1267.2 649.809 1283.73 667.075 1296.24C675.703 1302.5 682.737 1307.75 687.608 1311.42C690.044 1313.26 691.938 1314.71 693.221 1315.69C693.477 1315.89 693.708 1316.07 693.914 1316.23C694.226 1316.47 694.481 1316.66 694.677 1316.82C694.84 1316.94 694.963 1317.04 695.044 1317.1L695.134 1317.17L695.156 1317.19L695.161 1317.19Z" fill="#6BD9E9" stroke="#212121" stroke-width="14.6526"/>
<path d="M423.507 1205.49L442.434 1135.04C443.2 1132.19 446.891 1131.38 448.884 1133.56C503.33 1193.14 572.038 1190.81 594.843 1188.07C597.938 1187.7 600.362 1191.09 598.908 1193.85L550.712 1285.25C549.973 1286.65 548.461 1287.43 546.911 1287.1C532.446 1284.09 460.376 1266.47 423.932 1208.36C423.399 1207.51 423.247 1206.46 423.507 1205.49Z" fill="#D2EFF3" stroke="#212121" stroke-width="14.6526"/>
<path d="M901.85 1205.11L859.428 1133.75C857.988 1131.32 854.44 1131.36 852.905 1133.73C831.889 1166.09 795.643 1181 782.969 1185.41C780.689 1186.2 779.646 1188.91 780.875 1190.99L830.337 1274.56C831.075 1275.81 832.47 1276.49 833.863 1276.09C841.683 1273.86 868.517 1262.64 901.802 1208.92C902.517 1207.77 902.544 1206.28 901.85 1205.11Z" fill="#D2EFF3" stroke="#212121" stroke-width="14.6526"/>
<path d="M631.895 1269.29L598.926 1190.53L573.284 1245.48L631.895 1269.29Z" fill="#212121" stroke="#212121" stroke-width="14.6526" stroke-linejoin="round"/>
<path d="M747.284 1265.62L780.253 1186.87L805.895 1241.81L747.284 1265.62Z" fill="#212121" stroke="#212121" stroke-width="14.6526" stroke-linejoin="round"/>
<path d="M489.031 1120.93L445.074 1131.92L481.705 1155.73L489.031 1120.93Z" fill="#212121" stroke="#212121" stroke-width="14.6526" stroke-linejoin="round"/>
<path d="M816.884 1120.93L857.179 1131.92L831.537 1155.73L816.884 1120.93Z" fill="#212121" stroke="#212121" stroke-width="14.6526" stroke-linejoin="round"/>
<path d="M649 897C658.808 872.579 695.149 820.991 762.049 810.001C828.949 799.012 863.225 835.948 872 855.79" stroke="black" stroke-width="13"/>
</g>
<defs>
<clipPath id="clip0_269_302">
<rect width="732.632" height="1172.21" fill="white" transform="translate(329.685 157.517)"/>
</clipPath>
</defs>
</svg>
