<svg width="1392" height="1392" viewBox="0 0 1392 1392" fill="none" xmlns="http://www.w3.org/2000/svg">
<circle cx="696" cy="696" r="696" fill="#D8D8D8"/>
<mask id="mask0_269_594" style="mask-type:alpha" maskUnits="userSpaceOnUse" x="0" y="0" width="1392" height="1392">
<circle cx="696" cy="696" r="696" fill="#FFEDEF"/>
</mask>
<g mask="url(#mask0_269_594)">
<g clip-path="url(#clip0_269_594)">
<path d="M893.684 1317.34C840.935 1244.08 799.663 1102.43 794.779 1031.61L543.852 923.549L439.452 1317.34H893.684Z" fill="#F4D150" stroke="black" stroke-width="14.6526"/>
<mask id="mask1_269_594" style="mask-type:alpha" maskUnits="userSpaceOnUse" x="439" y="923" width="455" height="431">
<path d="M893.684 1353.97C840.935 1280.71 799.663 1102.43 794.779 1031.61L543.852 923.549L439.452 1353.97H893.684Z" fill="#F9C9B6"/>
</mask>
<g mask="url(#mask1_269_594)">
<g style="mix-blend-mode:multiply">
<ellipse cx="783.789" cy="916.223" rx="216.126" ry="197.811" fill="black"/>
</g>
</g>
<mask id="path-6-inside-1_269_594" fill="white">
<path fill-rule="evenodd" clip-rule="evenodd" d="M1003.16 699.797C1003.06 699.372 1002.96 698.947 1002.86 698.522C1002.76 698.097 1002.66 697.673 1002.55 697.249L942.489 446.552C942.431 446.305 942.372 446.058 942.313 445.81C942.253 445.563 942.194 445.316 942.134 445.07L941.867 443.954L941.862 443.955C904.431 292.136 751.397 198.786 599.104 235.274C446.811 271.762 352.696 424.327 388.129 576.625L388.122 576.626L450.363 836.41L450.414 836.397C489.254 986.238 641.155 1077.95 792.326 1041.73C943.496 1005.51 1037.34 854.92 1004.06 703.748L1004.11 703.737L1003.16 699.797Z"/>
</mask>
<path fill-rule="evenodd" clip-rule="evenodd" d="M1003.16 699.797C1003.06 699.372 1002.96 698.947 1002.86 698.522C1002.76 698.097 1002.66 697.673 1002.55 697.249L942.489 446.552C942.431 446.305 942.372 446.058 942.313 445.81C942.253 445.563 942.194 445.316 942.134 445.07L941.867 443.954L941.862 443.955C904.431 292.136 751.397 198.786 599.104 235.274C446.811 271.762 352.696 424.327 388.129 576.625L388.122 576.626L450.363 836.41L450.414 836.397C489.254 986.238 641.155 1077.95 792.326 1041.73C943.496 1005.51 1037.34 854.92 1004.06 703.748L1004.11 703.737L1003.16 699.797Z" fill="#F4D150"/>
<path d="M1003.16 699.797L988.9 703.147L988.907 703.179L988.915 703.211L1003.16 699.797ZM1002.86 698.522L1017.11 695.108L1017.11 695.107L1002.86 698.522ZM1002.55 697.249L988.305 700.663L988.312 700.694L988.32 700.726L1002.55 697.249ZM942.489 446.552L928.231 449.929L928.235 449.948L928.24 449.966L942.489 446.552ZM942.134 445.07L927.885 448.484L927.889 448.502L927.894 448.521L942.134 445.07ZM941.867 443.954L956.116 440.54L952.707 426.311L938.473 429.7L941.867 443.954ZM941.862 443.955L927.635 447.463L931.115 461.576L945.255 458.209L941.862 443.955ZM599.104 235.274L602.518 249.524L602.518 249.524L599.104 235.274ZM388.129 576.625L391.561 590.87L405.695 587.465L402.4 573.304L388.129 576.625ZM388.122 576.626L384.69 562.381L370.463 565.809L373.872 580.04L388.122 576.626ZM450.363 836.41L436.114 839.824L439.527 854.07L453.774 850.66L450.363 836.41ZM450.414 836.397L464.598 832.721L460.99 818.8L447.004 822.147L450.414 836.397ZM792.326 1041.73L788.912 1027.48L788.912 1027.48L792.326 1041.73ZM1004.06 703.748L1000.65 689.499L986.661 692.85L989.753 706.898L1004.06 703.748ZM1004.11 703.737L1007.52 717.987L1021.77 714.573L1018.36 700.323L1004.11 703.737ZM1017.43 696.447C1017.32 696.001 1017.22 695.555 1017.11 695.108L988.613 701.936C988.709 702.339 988.805 702.742 988.9 703.147L1017.43 696.447ZM1017.11 695.107C1017 694.661 1016.9 694.216 1016.79 693.771L988.32 700.726C988.418 701.129 988.516 701.533 988.613 701.936L1017.11 695.107ZM928.24 449.966L988.305 700.663L1016.8 693.835L956.739 443.138L928.24 449.966ZM956.747 443.174C956.686 442.916 956.624 442.656 956.562 442.396L928.063 449.225C928.119 449.459 928.175 449.693 928.231 449.929L956.747 443.174ZM956.562 442.396C956.5 442.137 956.437 441.877 956.374 441.618L927.894 448.521C927.951 448.755 928.007 448.99 928.063 449.225L956.562 442.396ZM927.617 447.368L927.885 448.484L956.383 441.656L956.116 440.54L927.617 447.368ZM945.255 458.209L945.261 458.208L938.473 429.7L938.468 429.701L945.255 458.209ZM956.088 440.448C916.731 280.813 755.821 182.659 595.69 221.025L602.518 249.524C746.973 214.913 892.131 303.46 927.635 447.463L956.088 440.448ZM595.69 221.025C435.558 259.391 336.6 419.808 373.857 579.945L402.4 573.304C368.791 428.847 458.063 284.134 602.518 249.524L595.69 221.025ZM391.553 590.871L391.561 590.87L384.697 562.379L384.69 562.381L391.553 590.871ZM464.613 832.996L402.371 573.212L373.872 580.04L436.114 839.824L464.613 832.996ZM447.004 822.147L446.953 822.16L453.774 850.66L453.825 850.648L447.004 822.147ZM436.231 840.074C477.071 997.631 636.788 1094.06 795.74 1055.98L788.912 1027.48C645.523 1061.84 501.438 974.844 464.598 832.721L436.231 840.074ZM795.74 1055.98C954.692 1017.9 1053.37 859.556 1018.37 700.598L989.753 706.898C1021.32 850.285 932.301 993.127 788.912 1027.48L795.74 1055.98ZM1000.7 689.488L1000.65 689.499L1007.48 717.998L1007.52 717.987L1000.7 689.488ZM988.915 703.211L989.859 707.151L1018.36 700.323L1017.41 696.383L988.915 703.211Z" fill="black" mask="url(#path-6-inside-1_269_594)"/>
</g>
<circle cx="612.667" cy="572.847" r="43.9579" transform="rotate(-6.27568 612.667 572.847)" fill="white"/>
<ellipse cx="617.393" cy="606.415" rx="32.9684" ry="49.4526" transform="rotate(-6.77646 617.393 606.415)" fill="black"/>
<circle cx="846.3" cy="541.242" r="43.9579" transform="rotate(-6.27568 846.3 541.242)" fill="white"/>
<ellipse cx="851.835" cy="569.782" rx="32.9684" ry="49.4526" transform="rotate(-6.27568 851.835 569.782)" fill="black"/>
<path d="M802.105 473.766C822.863 463.998 871.705 455.084 901.01 497.577" stroke="black" stroke-width="14.6526" stroke-linecap="round"/>
<path d="M525.826 566.469C533.411 544.817 561.293 503.737 612.14 512.625" stroke="black" stroke-width="14.6526" stroke-linecap="round"/>
<path d="M534.966 544.258L512.443 524.38" stroke="black" stroke-width="14.6526" stroke-linecap="round"/>
<path d="M889.878 477.22L912.4 457.341" stroke="black" stroke-width="14.6526" stroke-linecap="round"/>
<path d="M558.59 523.585L543.766 497.457" stroke="black" stroke-width="14.6526" stroke-linecap="round"/>
<path d="M862.59 463.873L877.414 437.745" stroke="black" stroke-width="14.6526" stroke-linecap="round"/>
<path d="M588.174 510.347L580.112 481.409" stroke="black" stroke-width="14.6526" stroke-linecap="round"/>
<path d="M829.343 461.624L837.406 432.687" stroke="black" stroke-width="14.6526" stroke-linecap="round"/>
<path d="M604.117 428.044C611.032 429.135 611.031 429.14 611.03 429.146L611.028 429.158L611.023 429.185L611.012 429.252C611.004 429.303 610.993 429.364 610.98 429.437C610.953 429.583 610.916 429.774 610.867 430.009C610.77 430.478 610.624 431.125 610.411 431.943C609.987 433.581 609.299 435.905 608.21 438.881C606.032 444.834 602.254 453.38 595.781 464.24C584.17 483.719 563.907 510.609 528.688 543.325C638.475 546.062 730.176 510.694 795.445 473.604C829.734 454.119 856.662 434.193 874.996 419.16C884.16 411.646 891.169 405.36 895.869 400.973C898.218 398.779 899.99 397.06 901.164 395.9C901.752 395.32 902.189 394.88 902.475 394.589C902.618 394.444 902.723 394.337 902.79 394.268L902.862 394.195L902.875 394.18L902.877 394.178L911.235 385.484L914.638 397.056L907.922 399.031C914.638 397.056 914.638 397.057 914.639 397.059L914.641 397.067L914.65 397.099L914.686 397.222L914.829 397.709C914.955 398.139 915.143 398.778 915.387 399.614C915.876 401.287 916.595 403.75 917.516 406.915C919.356 413.246 922.002 422.386 925.224 433.63C931.668 456.116 940.418 487.02 949.644 520.688C968.06 587.894 988.488 666.532 996.142 711.061C1008.93 785.49 989.152 841.999 977.451 875.426C975.176 881.923 973.206 887.549 971.841 892.264C972.037 892.429 972.294 892.63 972.628 892.867C974.815 894.417 978.694 896.205 984.299 897.987C995.346 901.498 1011.11 904.377 1027.97 906C1044.8 907.62 1062.32 907.949 1076.83 906.534C1084.09 905.825 1090.4 904.697 1095.42 903.165C1100.24 901.692 1103.26 900.025 1104.89 898.52C1104.94 898.206 1105 897.453 1104.82 896.001C1104.46 893.159 1103.33 889.157 1101.39 883.863C1098.48 875.961 1094.17 866.289 1089.14 854.977C1087.43 851.142 1085.64 847.119 1083.79 842.912C1069.4 810.167 1052.08 767.582 1048.31 724.196C1044.12 675.988 1053.64 634.757 1062.21 597.697L1062.61 595.931C1071.36 558.054 1078.64 525.162 1071.16 491.829C1059.82 441.239 1044.36 399.122 1020.6 368.857C997.093 338.914 965.212 320.226 919.877 316.79L915.195 316.435L913.747 311.968C892.887 247.606 864.725 205.549 828.813 179.47C792.914 153.4 748.387 142.653 693.5 142.653C592.076 142.653 482.857 181.186 400.896 247.852C319.019 314.448 264.833 408.649 271.923 520.147C279.747 643.197 270.83 736.5 250.72 804.82C232.382 867.119 204.589 909.094 171.275 933.579C175.646 935.811 181.473 938.645 188.752 941.89C207.166 950.098 234.874 960.933 271.809 971.296C342.635 991.168 447.441 1009.32 585.783 1003.85C555.288 977.656 524.521 945.871 500.16 912.272C472.2 873.71 452.044 831.892 451.454 792.942C450.753 746.689 453.886 625.657 454.855 600.603C457.107 542.371 494.495 497.486 530.088 467.63C547.989 452.615 565.722 441.154 578.969 433.448C585.6 429.591 591.126 426.664 595.013 424.692C596.956 423.706 598.491 422.959 599.551 422.453C600.081 422.2 600.492 422.008 600.776 421.876C600.851 421.841 600.918 421.81 600.975 421.784C601.026 421.76 601.069 421.741 601.105 421.724L601.197 421.682L601.224 421.67L601.233 421.666C601.236 421.665 601.238 421.663 604.117 428.044ZM604.117 428.044L611.032 429.135L613.05 416.335L601.238 421.663L604.117 428.044ZM971.278 891.686C971.287 891.686 971.331 891.735 971.383 891.832C971.296 891.734 971.27 891.686 971.278 891.686Z" fill="white" stroke="black" stroke-width="14"/>
<path d="M915.663 315.463C917.495 331.947 914.564 364.916 910.168 386.895" stroke="black" stroke-width="14.6526"/>
<path d="M746.358 623.058C747.103 637.134 752.578 667.314 768.515 675.432C788.437 685.579 772.819 719.217 735.525 717.06" stroke="black" stroke-width="14.6526"/>
<path d="M479.747 657.052V652.952L476.252 650.807C462.575 642.414 445.942 637.822 428.756 637.822C408.094 637.822 388.751 644.223 374.972 657.219C361.039 670.36 353.522 689.573 355.518 713.525C357.463 736.866 365.299 754.044 378.295 765.459C377.228 769.119 376.912 773.065 377.407 777.217C378.833 789.19 384.886 797.816 394.239 803.132C403.154 808.199 414.565 809.99 426.72 809.99C446.791 809.99 464.39 799.195 477.791 784.756L479.747 782.648V779.772V657.052Z" stroke="black" stroke-width="14.6526"/>
<path fill-rule="evenodd" clip-rule="evenodd" d="M501.623 714.692C501.885 712.304 502.019 709.878 502.019 707.422C502.019 669.995 467.195 645.148 428.756 645.148C390.317 645.148 359.156 668.959 362.819 712.917C364.857 737.377 373.61 753.475 387.181 763.165C385.026 766.915 384.083 771.321 384.682 776.351C386.986 795.698 403.503 802.664 426.72 802.664C467.398 802.664 499.585 751.211 501.623 714.692Z" fill="#F4D150"/>
<path d="M444.947 676.287C430.294 669.571 398.059 666.03 386.336 705.592" stroke="black" stroke-width="14.6526"/>
<path d="M406.484 678.117C414.421 684.833 429.562 705.591 426.631 734.896" stroke="black" stroke-width="14.6526"/>
<circle cx="421.137" cy="780.685" r="14.6526" fill="white"/>
<circle cx="424.8" cy="777.022" r="3.66316" fill="#FFEDEF"/>
<path d="M695.034 1306.63C695.034 1306.63 695.034 1306.63 699.536 1300.85L695.034 1306.63L701.341 1311.55L705.685 1304.84L705.686 1304.83L705.693 1304.82L705.727 1304.77C705.759 1304.72 705.809 1304.65 705.877 1304.54C705.937 1304.45 706.01 1304.34 706.097 1304.21C706.208 1304.04 706.341 1303.84 706.495 1303.61C707.046 1302.79 707.871 1301.57 708.949 1300.01C711.105 1296.89 714.272 1292.43 718.284 1287.1C726.32 1276.43 737.692 1262.32 751.082 1248.54C764.508 1234.71 779.751 1221.43 795.502 1212.18C811.314 1202.9 826.929 1198.1 841.42 1200.05C996.88 1221.01 1111.28 1289.87 1185.54 1392.43H184.403C244.111 1284.95 329.036 1216.54 466.723 1185.14C472.59 1183.81 480.568 1184.21 490.542 1186.53C500.414 1188.83 511.669 1192.86 523.808 1198.2C548.083 1208.87 575.181 1224.43 600.646 1240.54C626.072 1256.64 649.682 1273.17 666.948 1285.69C675.576 1291.94 682.61 1297.19 687.481 1300.87C689.917 1302.71 691.811 1304.15 693.094 1305.14C693.35 1305.33 693.581 1305.51 693.787 1305.67C694.099 1305.91 694.354 1306.11 694.55 1306.26C694.713 1306.38 694.836 1306.48 694.917 1306.54L695.007 1306.61L695.029 1306.63L695.034 1306.63Z" fill="#9287FF" stroke="black" stroke-width="14.6526"/>
<path d="M423.38 1194.93L442.307 1124.48C443.073 1121.63 446.764 1120.83 448.757 1123.01C503.203 1182.58 571.911 1180.25 594.716 1177.52C597.811 1177.14 600.235 1180.53 598.781 1183.29L550.585 1274.7C549.846 1276.1 548.334 1276.87 546.784 1276.55C532.319 1273.53 460.249 1255.92 423.805 1197.8C423.272 1196.95 423.12 1195.9 423.38 1194.93Z" fill="#D8D8D8" stroke="black" stroke-width="14.6526"/>
<path d="M901.724 1194.56L859.302 1123.19C857.862 1120.77 854.314 1120.8 852.779 1123.17C831.763 1155.54 795.517 1170.45 782.843 1174.85C780.563 1175.64 779.52 1178.35 780.749 1180.43L830.211 1264C830.949 1265.25 832.344 1265.93 833.737 1265.53C841.557 1263.3 868.391 1252.08 901.676 1198.36C902.391 1197.21 902.418 1195.72 901.724 1194.56Z" fill="#D8D8D8" stroke="black" stroke-width="14.6526"/>
<path d="M631.768 1258.73L598.799 1179.97L573.157 1234.92L631.768 1258.73Z" fill="black" stroke="black" stroke-width="14.6526" stroke-linejoin="round"/>
<path d="M747.157 1255.07L780.125 1176.31L805.768 1231.26L747.157 1255.07Z" fill="black" stroke="black" stroke-width="14.6526" stroke-linejoin="round"/>
<path d="M488.904 1110.37L444.947 1121.36L481.578 1145.17L488.904 1110.37Z" fill="black" stroke="black" stroke-width="14.6526" stroke-linejoin="round"/>
<path d="M816.757 1110.37L857.052 1121.36L831.41 1145.17L816.757 1110.37Z" fill="black" stroke="black" stroke-width="14.6526" stroke-linejoin="round"/>
<path d="M646 924C655.808 899.579 692.149 847.991 759.049 837.001C825.949 826.012 860.225 862.948 869 882.79" stroke="black" stroke-width="13"/>
</g>
<defs>
<clipPath id="clip0_269_594">
<rect width="732.632" height="1172.21" fill="white" transform="translate(329.558 146.96)"/>
</clipPath>
</defs>
</svg>
