<svg width="21" height="20" viewBox="0 0 21 20" fill="none" xmlns="http://www.w3.org/2000/svg">
<path d="M8.76232 1.41532C9.55648 0.253389 11.2705 0.253389 12.0647 1.41532L14.2366 4.59303C14.4971 4.97424 14.8816 5.25355 15.3246 5.38356L19.0187 6.46758C20.3692 6.86386 20.8988 8.49402 20.0391 9.60833L17.6877 12.6562C17.4056 13.0218 17.2587 13.4737 17.272 13.9353L17.3825 17.7827C17.4229 19.1895 16.0363 20.1969 14.7109 19.7237L11.0859 18.4296C10.6511 18.2743 10.1759 18.2743 9.74104 18.4296L6.11612 19.7237C4.79071 20.1969 3.40409 19.1895 3.44449 17.7827L3.55499 13.9353C3.56825 13.4737 3.42138 13.0218 3.13932 12.6562L0.787917 9.60833C-0.0717804 8.49401 0.457821 6.86386 1.80828 6.46758L5.50237 5.38356C5.94542 5.25355 6.32984 4.97424 6.59039 4.59303L8.76232 1.41532ZM8.41849 10.6495C8.4157 10.5659 8.34709 10.4995 8.26341 10.4995H7.43014C6.86866 10.4995 6.40079 10.9618 6.54198 11.5053C6.71544 12.173 7.06021 12.7903 7.54989 13.2924C8.2785 14.0395 9.27023 14.4722 10.3135 14.4983C11.3567 14.5244 12.3688 14.1418 13.1339 13.4321C13.8989 12.7224 14.3563 11.7418 14.4085 10.6995V10.6995C14.4112 10.5899 14.3231 10.4995 14.2134 10.4995H13.4032C12.8573 10.4995 12.4349 10.9689 12.1778 11.4504C12.0924 11.6105 11.9848 11.7595 11.8571 11.8927C11.4979 12.2673 11.0072 12.4876 10.4885 12.5071C9.96993 12.5265 9.46404 12.3436 9.07777 11.997C8.6915 11.6504 8.45509 11.1672 8.41849 10.6495V10.6495Z" fill="#FD8341"/>
</svg>
