<svg width="32" height="40" viewBox="0 0 32 40" fill="none" xmlns="http://www.w3.org/2000/svg">
<path d="M16 0C11.5977 0 8 3.59766 8 8V12H4.5C2.01953 12 0 14.0195 0 16.5V35.5C0 37.9805 2.01953 40 4.5 40H27.5C29.9805 40 32 37.9805 32 35.5V16.5C32 14.0195 29.9805 12 27.5 12H11V8C11 5.21875 13.2188 3 16 3C18.6484 3 20.7812 5.02734 20.9805 7.61328C21.0391 8.44141 21.7617 9.05859 22.5898 8.99609C23.4141 8.93359 24.0352 8.21484 23.9688 7.38672C23.6562 3.26562 20.1953 0 16 0ZM16 23C17.6562 23 19 24.3438 19 26C19 27.6562 17.6562 29 16 29C14.3438 29 13 27.6562 13 26C13 24.3438 14.3438 23 16 23Z" fill="#790EF5"/>
</svg>
