<svg width="24" height="24" viewBox="0 0 24 24" fill="none" xmlns="http://www.w3.org/2000/svg">
<path d="M6.09202 5.21799C6.51984 5 7.0799 5 8.2 5C8.47129 5 8.60694 5 8.69857 4.96219C8.79617 4.9219 8.83905 4.88915 8.90358 4.80557C8.96416 4.72712 9.01122 4.55447 9.10533 4.20917C9.45235 2.93602 10.6169 2 12 2C13.3831 2 14.5477 2.93602 14.8947 4.20917C14.9888 4.55447 15.0358 4.72712 15.0964 4.80557C15.161 4.88915 15.2038 4.9219 15.3014 4.96219C15.3931 5 15.5287 5 15.8 5C16.9201 5 17.4802 5 17.908 5.21799C18.2843 5.40973 18.5903 5.71569 18.782 6.09202C19 6.51984 19 7.0799 19 8.2C19 8.47129 19 8.60694 19.0378 8.69857C19.0781 8.79617 19.1109 8.83905 19.1944 8.90358C19.2729 8.96416 19.4455 9.01122 19.7908 9.10533C21.064 9.45235 22 10.6169 22 12C22 13.3831 21.064 14.5477 19.7908 14.8947C19.4455 14.9888 19.2729 15.0358 19.1944 15.0964C19.1109 15.161 19.0781 15.2038 19.0378 15.3014C19 15.3931 19 15.5287 19 15.8C19 16.9201 19 17.4802 18.782 17.908C18.5903 18.2843 18.2843 18.5903 17.908 18.782C17.4802 19 16.9201 19 15.8 19C15.5287 19 15.3931 19 15.3014 18.9622C15.2038 18.9219 15.161 18.8891 15.0964 18.8056C15.0358 18.7271 14.9888 18.5545 14.8947 18.2092C14.5477 16.936 13.3831 16 12 16C10.6169 16 9.45235 16.936 9.10533 18.2092C9.01122 18.5545 8.96416 18.7271 8.90358 18.8056C8.83905 18.8892 8.79617 18.9219 8.69857 18.9622C8.60694 19 8.4713 19 8.2 19C7.0799 19 6.51984 19 6.09202 18.782C5.7157 18.5903 5.40973 18.2843 5.21799 17.908C5 17.4802 5 16.9201 5 15.8C5 15.5287 5 15.3931 5.03781 15.3014C5.0781 15.2038 5.11085 15.161 5.19443 15.0964C5.27288 15.0358 5.44553 14.9888 5.79083 14.8947C7.06398 14.5477 8 13.3831 8 12C8 10.6169 7.06398 9.45235 5.79083 9.10533C5.44553 9.01122 5.27288 8.96416 5.19443 8.90358C5.11085 8.83905 5.0781 8.79617 5.03781 8.69857C5 8.60694 5 8.47129 5 8.2C5 7.0799 5 6.51984 5.21799 6.09202C5.40973 5.71569 5.7157 5.40973 6.09202 5.21799Z" stroke="white" stroke-width="2"/>
</svg>
