<svg width="76" height="76" viewBox="0 0 76 76" fill="none" xmlns="http://www.w3.org/2000/svg">
<rect width="76" height="76" rx="38" fill="url(#paint0_linear_1305_210)"/>
<path d="M48 53.1053L54.0322 51.6369C55.115 51.3733 55.7735 50.2756 55.4963 49.1963L52.5787 37.8329C52.2381 36.5064 51.0425 35.5789 49.673 35.5789H26.327C24.9575 35.5789 23.7619 36.5064 23.4213 37.8329L20.5037 49.1963C20.2265 50.2756 20.885 51.3733 21.9678 51.6369L28 53.1053M24 57H52M48 57V45.3158C48 44.2403 47.1046 43.3684 46 43.3684H30C28.8954 43.3684 28 44.2403 28 45.3158V57H48ZM39 52.1316C39 52.6693 38.5523 53.1053 38 53.1053C37.4477 53.1053 37 52.6693 37 52.1316C37 51.5938 37.4477 51.1579 38 51.1579C38.5523 51.1579 39 51.5938 39 52.1316ZM44 25.8421C44 29.0686 41.3137 31.6842 38 31.6842C34.6863 31.6842 32 29.0686 32 25.8421C32 22.6156 34.6863 20 38 20C41.3137 20 44 22.6156 44 25.8421Z" stroke="white" stroke-width="2" stroke-linecap="round"/>
<defs>
<linearGradient id="paint0_linear_1305_210" x1="38" y1="0" x2="38" y2="76" gradientUnits="userSpaceOnUse">
<stop stop-color="#DCB9FF"/>
<stop offset="1" stop-color="#A354FF"/>
</linearGradient>
</defs>
</svg>
