<svg width="29" height="29" viewBox="0 0 29 29" fill="none" xmlns="http://www.w3.org/2000/svg">
<path d="M1.65361e-06 19.234C2.61623e-06 24.6276 4.46317 29 9.96876 29L9.96876 19.7348C9.96875 14.3411 5.50559 9.96873 0 9.96873L1.65361e-06 19.234Z" fill="#9335FF"/>
<path d="M19.0313 9.2652C19.0313 14.6588 23.4944 19.0312 29 19.0312L29 9.76603C29 4.37239 24.5368 -1.62018e-05 19.0312 -1.52588e-05L19.0313 9.2652Z" fill="#9335FF"/>
<path d="M9.76604 -1.52588e-05C4.37241 -1.54994e-05 2.35763e-07 4.46315 0 9.96874H9.26522C14.6589 9.96874 19.0313 5.50558 19.0313 -1.48454e-05L9.76604 -1.52588e-05Z" fill="#790EF5"/>
<path d="M19.7348 19.0312C14.3412 19.0312 9.96875 23.4944 9.96875 29H19.234C24.6276 29 29 24.5368 29 19.0312L19.7348 19.0312Z" fill="#790EF5"/>
</svg>
